<?xml version="1.0" encoding="UTF-8" standalone="no"?>
<svg xmlns:xlink="http://www.w3.org/1999/xlink" version="1.1" style="font-family:&quot;Lucida Grande&quot;, &quot;Lucida Sans Unicode&quot;, Arial, Helvetica, sans-serif;font-size:12px;" xmlns="http://www.w3.org/2000/svg" width="1271" height="400"><desc>Created with Highcharts 4.0.1</desc><defs><clipPath id="highcharts-1"><rect x="0" y="0" width="987" height="285"/></clipPath></defs><rect x="0" y="0" width="1271" height="400" strokeWidth="0" fill="#FFFFFF" class=" highcharts-background"/><g class="highcharts-button" style="cursor:default;" stroke-linecap="round" transform="translate(1237,10)"><title>Chart context menu</title><rect x="0.5" y="0.5" width="24" height="22" strokeWidth="1" fill="white" stroke-width="1" stroke="none" rx="2" ry="2"/><path fill="#E0E0E0" d="M 6 6.5 L 20 6.5 M 6 11.5 L 20 11.5 M 6 16.5 L 20 16.5" stroke="#666" stroke-width="3" zIndex="1"/><text x="0" zIndex="1" style="color:black;fill:black;" y="13"></text></g><path fill="rgba(128,133,233,0.25)" d="M 0 0"/><path fill="rgba(128,133,232,0.25)" d="M 0 0"/><path fill="rgba(128,133,233,0.25)" d="M 0 0"/><path fill="rgba(67,67,72,0.25)" d="M 0 0"/><path fill="rgba(241,92,128,0.25)" d="M 0 0"/><path fill="rgba(145,232,225,0.25)" d="M 0 0"/><path fill="rgba(141,70,83,0.25)" d="M 0 0"/><path fill="rgba(144,237,125,0.25)" d="M 0 0"/><g class="highcharts-grid" zIndex="1"/><g class="highcharts-grid" zIndex="1"><path fill="none" d="M 68 59.5 L 1055 59.5" stroke="#C0C0C0" stroke-width="1" zIndex="1" opacity="1"/><path fill="none" d="M 68 117.5 L 1055 117.5" stroke="#C0C0C0" stroke-width="1" zIndex="1" opacity="1"/><path fill="none" d="M 68 174.5 L 1055 174.5" stroke="#C0C0C0" stroke-width="1" zIndex="1" opacity="1"/><path fill="none" d="M 68 231.5 L 1055 231.5" stroke="#C0C0C0" stroke-width="1" zIndex="1" opacity="1"/><path fill="none" d="M 68 288.5 L 1055 288.5" stroke="#C0C0C0" stroke-width="1" zIndex="1" opacity="1"/><path fill="none" d="M 68 345.5 L 1055 345.5" stroke="#C0C0C0" stroke-width="1" zIndex="1" opacity="1"/></g><g class="highcharts-axis" zIndex="2"><path fill="none" d="M 157.5 345 L 157.5 355" stroke="#C0D0E0" stroke-width="1" opacity="1"/><path fill="none" d="M 238.5 345 L 238.5 355" stroke="#C0D0E0" stroke-width="1" opacity="1"/><path fill="none" d="M 319.5 345 L 319.5 355" stroke="#C0D0E0" stroke-width="1" opacity="1"/><path fill="none" d="M 399.5 345 L 399.5 355" stroke="#C0D0E0" stroke-width="1" opacity="1"/><path fill="none" d="M 480.5 345 L 480.5 355" stroke="#C0D0E0" stroke-width="1" opacity="1"/><path fill="none" d="M 561.5 345 L 561.5 355" stroke="#C0D0E0" stroke-width="1" opacity="1"/><path fill="none" d="M 641.5 345 L 641.5 355" stroke="#C0D0E0" stroke-width="1" opacity="1"/><path fill="none" d="M 722.5 345 L 722.5 355" stroke="#C0D0E0" stroke-width="1" opacity="1"/><path fill="none" d="M 802.5 345 L 802.5 355" stroke="#C0D0E0" stroke-width="1" opacity="1"/><path fill="none" d="M 883.5 345 L 883.5 355" stroke="#C0D0E0" stroke-width="1" opacity="1"/><path fill="none" d="M 964.5 345 L 964.5 355" stroke="#C0D0E0" stroke-width="1" opacity="1"/><path fill="none" d="M 1044.5 345 L 1044.5 355" stroke="#C0D0E0" stroke-width="1" opacity="1"/><path fill="none" d="M 77.5 345 L 77.5 355" stroke="#C0D0E0" stroke-width="1" opacity="1"/><text x="561.5" zIndex="7" text-anchor="middle" transform="translate(0,0)" class=" highcharts-xaxis-title" style="color:#707070;fill:#707070;" visibility="visible" y="383"><tspan>Date (slice)</tspan></text><path fill="none" d="M 68 345.5 L 1055 345.5" stroke="#C0D0E0" stroke-width="1" zIndex="7" visibility="visible"/></g><g class="highcharts-axis" zIndex="2"><text x="24" zIndex="7" text-anchor="middle" transform="translate(0,0) rotate(270 24 202.5)" class=" highcharts-yaxis-title" style="color:#707070;fill:#707070;" visibility="visible" y="202.5"><tspan>Score (Frequency per Million)</tspan></text></g><g class="highcharts-series-group" zIndex="3"><g class="highcharts-series" visibility="visible" zIndex="0.1" transform="translate(68,60) scale(1 1)" clip-path="url(#highcharts-1)"><path fill="none" d="M 9.676470588226666 228 C 9.676470588226666 228 203.20588235293602 228 332.22549019607555 228 C 461.2450980392152 228 525.7549019607849 206.32701494220146 654.7745098039245 182.52998010284148 C 783.794117647064 158.73294526348153 977.3235294117734 109.01482580320015 977.3235294117734 109.01482580320015" stroke="#7cb5ec" stroke-width="2" zIndex="1" stroke-linejoin="round" stroke-linecap="round"/><path fill="none" d="M -0.3235294117733343 228 L 9.676470588226666 228 C 9.676470588226666 228 203.20588235293602 228 332.22549019607555 228 C 461.2450980392152 228 525.7549019607849 206.32701494220146 654.7745098039245 182.52998010284148 C 783.794117647064 158.73294526348153 977.3235294117734 109.01482580320015 977.3235294117734 109.01482580320015 L 987.3235294117734 109.01482580320015" stroke-linejoin="round" visibility="visible" stroke="rgba(192,192,192,0.0001)" stroke-width="22" zIndex="2" class=" highcharts-tracker" style="cursor:pointer;"/></g><g class="highcharts-markers highcharts-tracker" visibility="visible" zIndex="0.1" transform="translate(68,60) scale(1 1)" clip-path="none" style="cursor:pointer;"><path fill="#7cb5ec" d="M 977 105.01482580320015 C 982.328 105.01482580320015 982.328 113.01482580320015 977 113.01482580320015 C 971.672 113.01482580320015 971.672 105.01482580320015 977 105.01482580320015 Z" stroke="#FFFFFF" stroke-width="1"/><path fill="#7cb5ec" d="M 654 178.52998010284148 C 659.328 178.52998010284148 659.328 186.52998010284148 654 186.52998010284148 C 648.672 186.52998010284148 648.672 178.52998010284148 654 178.52998010284148 Z" stroke="#FFFFFF" stroke-width="1"/><path fill="#7cb5ec" d="M 332 224 C 337.328 224 337.328 232 332 232 C 326.672 232 326.672 224 332 224 Z" stroke="#FFFFFF" stroke-width="1"/><path fill="#7cb5ec" d="M 9 224 C 14.328 224 14.328 232 9 232 C 3.6719999999999997 232 3.6719999999999997 224 9 224 Z" stroke="#FFFFFF" stroke-width="1"/></g><g class="highcharts-series" visibility="visible" zIndex="0.1" transform="translate(68,60) scale(1 1)" clip-path="url(#highcharts-1)"><path fill="none" d="M 9.676470588226666 228 C 9.676470588226666 228 203.20588235293602 220.23178527496412 332.22549019607555 211.13778129553242 C 461.2450980392152 202.04377731610072 525.7549019607849 182.52998010284148 654.7745098039245 182.52998010284148 C 783.794117647064 182.52998010284148 977.3235294117734 228 977.3235294117734 228" stroke="#434348" stroke-width="2" zIndex="1" stroke-linejoin="round" stroke-linecap="round"/><path fill="none" d="M -0.3235294117733343 228 L 9.676470588226666 228 C 9.676470588226666 228 203.20588235293602 220.23178527496412 332.22549019607555 211.13778129553242 C 461.2450980392152 202.04377731610072 525.7549019607849 182.52998010284148 654.7745098039245 182.52998010284148 C 783.794117647064 182.52998010284148 977.3235294117734 228 977.3235294117734 228 L 987.3235294117734 228" stroke-linejoin="round" visibility="visible" stroke="rgba(192,192,192,0.0001)" stroke-width="22" zIndex="2" class=" highcharts-tracker" style="cursor:pointer;"/></g><g class="highcharts-markers highcharts-tracker" visibility="visible" zIndex="0.1" transform="translate(68,60) scale(1 1)" clip-path="none" style="cursor:pointer;"><path fill="#434348" d="M 977 224 L 981 228 977 232 973 228 Z" stroke="#FFFFFF" stroke-width="1"/><path fill="#434348" d="M 654 178.52998010284148 L 658 182.52998010284148 654 186.52998010284148 650 182.52998010284148 Z" stroke="#FFFFFF" stroke-width="1"/><path fill="#434348" d="M 332 207.13778129553242 L 336 211.13778129553242 332 215.13778129553242 328 211.13778129553242 Z" stroke="#FFFFFF" stroke-width="1"/><path fill="#434348" d="M 9 224 L 13 228 9 232 5 228 Z" stroke="#FFFFFF" stroke-width="1"/></g><g class="highcharts-series" visibility="visible" zIndex="0.1" transform="translate(68,60) scale(1 1)" clip-path="url(#highcharts-1)"><path fill="none" d="M 9.676470588226666 187.760828246402 C 9.676470588226666 187.760828246402 203.20588235293602 228 332.22549019607555 228 C 461.2450980392152 228 525.7549019607849 228 654.7745098039245 228 C 783.794117647064 228 977.3235294117734 228 977.3235294117734 228" stroke="#90ed7d" stroke-width="2" zIndex="1" stroke-linejoin="round" stroke-linecap="round"/><path fill="none" d="M -0.3235294117733343 187.760828246402 L 9.676470588226666 187.760828246402 C 9.676470588226666 187.760828246402 203.20588235293602 228 332.22549019607555 228 C 461.2450980392152 228 525.7549019607849 228 654.7745098039245 228 C 783.794117647064 228 977.3235294117734 228 977.3235294117734 228 L 987.3235294117734 228" stroke-linejoin="round" visibility="visible" stroke="rgba(192,192,192,0.0001)" stroke-width="22" zIndex="2" class=" highcharts-tracker" style="cursor:pointer;"/></g><g class="highcharts-markers highcharts-tracker" visibility="visible" zIndex="0.1" transform="translate(68,60) scale(1 1)" clip-path="none" style="cursor:pointer;"><path fill="#90ed7d" d="M 973 224 L 981 224 981 232 973 232 Z" stroke="#FFFFFF" stroke-width="1"/><path fill="#90ed7d" d="M 650 224 L 658 224 658 232 650 232 Z" stroke="#FFFFFF" stroke-width="1"/><path fill="#90ed7d" d="M 328 224 L 336 224 336 232 328 232 Z" stroke="#FFFFFF" stroke-width="1"/><path fill="#90ed7d" d="M 5 183.760828246402 L 13 183.760828246402 13 191.760828246402 5 191.760828246402 Z" stroke="#FFFFFF" stroke-width="1"/></g><g class="highcharts-series" visibility="visible" zIndex="0.1" transform="translate(68,60) scale(1 1)" clip-path="url(#highcharts-1)"><path fill="none" d="M 9.676470588226666 228 C 9.676470588226666 228 203.20588235293602 228 332.22549019607555 228 C 461.2450980392152 228 525.7549019607849 215.09668838486627 654.7745098039245 203.19817096518625 C 783.794117647064 191.29965354550626 977.3235294117734 168.50741290159993 977.3235294117734 168.50741290159993" stroke="#f7a35c" stroke-width="2" zIndex="1" stroke-linejoin="round" stroke-linecap="round"/><path fill="none" d="M -0.3235294117733343 228 L 9.676470588226666 228 C 9.676470588226666 228 203.20588235293602 228 332.22549019607555 228 C 461.2450980392152 228 525.7549019607849 215.09668838486627 654.7745098039245 203.19817096518625 C 783.794117647064 191.29965354550626 977.3235294117734 168.50741290159993 977.3235294117734 168.50741290159993 L 987.3235294117734 168.50741290159993" stroke-linejoin="round" visibility="visible" stroke="rgba(192,192,192,0.0001)" stroke-width="22" zIndex="2" class=" highcharts-tracker" style="cursor:pointer;"/></g><g class="highcharts-markers highcharts-tracker" visibility="visible" zIndex="0.1" transform="translate(68,60) scale(1 1)" clip-path="none" style="cursor:pointer;"><path fill="#f7a35c" d="M 977 164.50741290159993 L 981 172.50741290159993 973 172.50741290159993 Z" stroke="#FFFFFF" stroke-width="1"/><path fill="#f7a35c" d="M 654 199.19817096518625 L 658 207.19817096518625 650 207.19817096518625 Z" stroke="#FFFFFF" stroke-width="1"/><path fill="#f7a35c" d="M 332 224 L 336 232 328 232 Z" stroke="#FFFFFF" stroke-width="1"/><path fill="#f7a35c" d="M 9 224 L 13 232 5 232 Z" stroke="#FFFFFF" stroke-width="1"/></g><g class="highcharts-series" visibility="visible" zIndex="0.1" transform="translate(68,60) scale(1 1)" clip-path="url(#highcharts-1)"><path fill="none" d="M 9.676470588226666 228 C 9.676470588226666 228 203.20588235293602 214.3136254276709 332.22549019607555 204.3928938137454 C 461.2450980392152 194.47216219981988 525.7549019607849 204.3928938137454 654.7745098039245 178.3963419303724 C 783.794117647064 152.39979004699939 977.3235294117734 13.826686445760174 977.3235294117734 13.826686445760174" stroke="#8085e9" stroke-width="2" zIndex="1" stroke-linejoin="round" stroke-linecap="round"/><path fill="none" d="M -0.3235294117733343 228 L 9.676470588226666 228 C 9.676470588226666 228 203.20588235293602 214.3136254276709 332.22549019607555 204.3928938137454 C 461.2450980392152 194.47216219981988 525.7549019607849 204.3928938137454 654.7745098039245 178.3963419303724 C 783.794117647064 152.39979004699939 977.3235294117734 13.826686445760174 977.3235294117734 13.826686445760174 L 987.3235294117734 13.826686445760174" stroke-linejoin="round" visibility="visible" stroke="rgba(192,192,192,0.0001)" stroke-width="22" zIndex="2" class=" highcharts-tracker" style="cursor:pointer;"/></g><g class="highcharts-markers highcharts-tracker" visibility="visible" zIndex="0.1" transform="translate(68,60) scale(1 1)" clip-path="none" style="cursor:pointer;"><path fill="#8085e9" d="M 973 9.826686445760174 L 981 9.826686445760174 977 17.826686445760174 Z" stroke="#FFFFFF" stroke-width="1"/><path fill="#8085e9" d="M 650.7745098039245 174.3963419303724 L 658.7745098039245 174.3963419303724 654.7745098039245 182.3963419303724 Z" stroke="#FFFFFF" stroke-width="1"/><path fill="#8085e9" d="M 328 200.3928938137454 L 336 200.3928938137454 332 208.3928938137454 Z" stroke="#FFFFFF" stroke-width="1"/><path fill="#8085e9" d="M 5 224 L 13 224 9 232 Z" stroke="#FFFFFF" stroke-width="1"/></g><g class="highcharts-series" visibility="visible" zIndex="0.1" transform="translate(68,60) scale(1 1)" clip-path="url(#highcharts-1)"><path fill="none" d="M 9.676470588226666 182.7309317772022 C 9.676470588226666 182.7309317772022 203.20588235293602 201.02045007285187 332.22549019607555 201.02045007285187 C 461.2450980392152 201.02045007285187 525.7549019607849 199.0645327927172 654.7745098039245 199.0645327927172 C 783.794117647064 199.0645327927172 977.3235294117734 228 977.3235294117734 228" stroke="#f15c80" stroke-width="2" zIndex="1" stroke-linejoin="round" stroke-linecap="round"/><path fill="none" d="M -0.3235294117733343 182.7309317772022 L 9.676470588226666 182.7309317772022 C 9.676470588226666 182.7309317772022 203.20588235293602 201.02045007285187 332.22549019607555 201.02045007285187 C 461.2450980392152 201.02045007285187 525.7549019607849 199.0645327927172 654.7745098039245 199.0645327927172 C 783.794117647064 199.0645327927172 977.3235294117734 228 977.3235294117734 228 L 987.3235294117734 228" stroke-linejoin="round" visibility="visible" stroke="rgba(192,192,192,0.0001)" stroke-width="22" zIndex="2" class=" highcharts-tracker" style="cursor:pointer;"/></g><g class="highcharts-markers highcharts-tracker" visibility="visible" zIndex="0.1" transform="translate(68,60) scale(1 1)" clip-path="none" style="cursor:pointer;"><path fill="#f15c80" d="M 977 224 C 982.328 224 982.328 232 977 232 C 971.672 232 971.672 224 977 224 Z" stroke="#FFFFFF" stroke-width="1"/><path fill="#f15c80" d="M 654 195.0645327927172 C 659.328 195.0645327927172 659.328 203.0645327927172 654 203.0645327927172 C 648.672 203.0645327927172 648.672 195.0645327927172 654 195.0645327927172 Z" stroke="#FFFFFF" stroke-width="1"/><path fill="#f15c80" d="M 332 197.02045007285187 C 337.328 197.02045007285187 337.328 205.02045007285187 332 205.02045007285187 C 326.672 205.02045007285187 326.672 197.02045007285187 332 197.02045007285187 Z" stroke="#FFFFFF" stroke-width="1"/><path fill="#f15c80" d="M 9 178.7309317772022 C 14.328 178.7309317772022 14.328 186.7309317772022 9 186.7309317772022 C 3.6719999999999997 186.7309317772022 3.6719999999999997 178.7309317772022 9 178.7309317772022 Z" stroke="#FFFFFF" stroke-width="1"/></g><g class="highcharts-series" visibility="visible" zIndex="0.1" transform="translate(68,60) scale(1 1)" clip-path="url(#highcharts-1)"><path fill="none" d="M 9.676470588226666 228 C 9.676470588226666 228 203.20588235293602 228 332.22549019607555 228 C 461.2450980392152 228 525.7549019607849 228 654.7745098039245 228 C 783.794117647064 228 977.3235294117734 120.91334322287992 977.3235294117734 120.91334322287992" stroke="#e4d354" stroke-width="2" zIndex="1" stroke-linejoin="round" stroke-linecap="round"/><path fill="none" d="M -0.3235294117733343 228 L 9.676470588226666 228 C 9.676470588226666 228 203.20588235293602 228 332.22549019607555 228 C 461.2450980392152 228 525.7549019607849 228 654.7745098039245 228 C 783.794117647064 228 977.3235294117734 120.91334322287992 977.3235294117734 120.91334322287992 L 987.3235294117734 120.91334322287992" stroke-linejoin="round" visibility="visible" stroke="rgba(192,192,192,0.0001)" stroke-width="22" zIndex="2" class=" highcharts-tracker" style="cursor:pointer;"/></g><g class="highcharts-markers highcharts-tracker" visibility="visible" zIndex="0.1" transform="translate(68,60) scale(1 1)" clip-path="none" style="cursor:pointer;"><path fill="#e4d354" d="M 977 116.91334322287992 L 981 120.91334322287992 977 124.91334322287992 973 120.91334322287992 Z" stroke="#FFFFFF" stroke-width="1"/><path fill="#e4d354" d="M 654 224 L 658 228 654 232 650 228 Z" stroke="#FFFFFF" stroke-width="1"/><path fill="#e4d354" d="M 332 224 L 336 228 332 232 328 228 Z" stroke="#FFFFFF" stroke-width="1"/><path fill="#e4d354" d="M 9 224 L 13 228 9 232 5 228 Z" stroke="#FFFFFF" stroke-width="1"/></g><g class="highcharts-series" visibility="visible" zIndex="0.1" transform="translate(68,60) scale(1 1)" clip-path="url(#highcharts-1)"><path fill="none" d="M 9.676470588226666 228 C 9.676470588226666 228 203.20588235293602 228 332.22549019607555 228 C 461.2450980392152 228 525.7549019607849 196.80820100645747 654.7745098039245 182.52998010284148 C 783.794117647064 168.25175919922552 977.3235294117734 156.60889548192014 977.3235294117734 156.60889548192014" stroke="#8085e8" stroke-width="2" zIndex="1" stroke-linejoin="round" stroke-linecap="round"/><path fill="none" d="M -0.3235294117733343 228 L 9.676470588226666 228 C 9.676470588226666 228 203.20588235293602 228 332.22549019607555 228 C 461.2450980392152 228 525.7549019607849 196.80820100645747 654.7745098039245 182.52998010284148 C 783.794117647064 168.25175919922552 977.3235294117734 156.60889548192014 977.3235294117734 156.60889548192014 L 987.3235294117734 156.60889548192014" stroke-linejoin="round" visibility="visible" stroke="rgba(192,192,192,0.0001)" stroke-width="22" zIndex="2" class=" highcharts-tracker" style="cursor:pointer;"/></g><g class="highcharts-markers highcharts-tracker" visibility="visible" zIndex="0.1" transform="translate(68,60) scale(1 1)" clip-path="none" style="cursor:pointer;"><path fill="#8085e8" d="M 973 152.60889548192014 L 981 152.60889548192014 981 160.60889548192014 973 160.60889548192014 Z" stroke="#FFFFFF" stroke-width="1"/><path fill="#8085e8" d="M 650 178.52998010284148 L 658 178.52998010284148 658 186.52998010284148 650 186.52998010284148 Z" stroke="#FFFFFF" stroke-width="1"/><path fill="#8085e8" d="M 328 224 L 336 224 336 232 328 232 Z" stroke="#FFFFFF" stroke-width="1"/><path fill="#8085e8" d="M 5 224 L 13 224 13 232 5 232 Z" stroke="#FFFFFF" stroke-width="1"/></g><g class="highcharts-series" visibility="visible" zIndex="0.1" transform="translate(68,60) scale(1 1)" clip-path="url(#highcharts-1)"><path fill="none" d="M 9.676470588226666 228 C 9.676470588226666 228 203.20588235293602 228 332.22549019607555 228 C 461.2450980392152 228 525.7549019607849 226.3694370091432 654.7745098039245 207.33180913765523 C 783.794117647064 188.29418126616724 977.3235294117734 132.81186064256002 977.3235294117734 132.81186064256002" stroke="#8d4653" stroke-width="2" zIndex="1" stroke-linejoin="round" stroke-linecap="round"/><path fill="none" d="M -0.3235294117733343 228 L 9.676470588226666 228 C 9.676470588226666 228 203.20588235293602 228 332.22549019607555 228 C 461.2450980392152 228 525.7549019607849 226.3694370091432 654.7745098039245 207.33180913765523 C 783.794117647064 188.29418126616724 977.3235294117734 132.81186064256002 977.3235294117734 132.81186064256002 L 987.3235294117734 132.81186064256002" stroke-linejoin="round" visibility="visible" stroke="rgba(192,192,192,0.0001)" stroke-width="22" zIndex="2" class=" highcharts-tracker" style="cursor:pointer;"/></g><g class="highcharts-markers highcharts-tracker" visibility="visible" zIndex="0.1" transform="translate(68,60) scale(1 1)" clip-path="none" style="cursor:pointer;"><path fill="#8d4653" d="M 977 128.81186064256002 L 981 136.81186064256002 973 136.81186064256002 Z" stroke="#FFFFFF" stroke-width="1"/><path fill="#8d4653" d="M 654 203.33180913765523 L 658 211.33180913765523 650 211.33180913765523 Z" stroke="#FFFFFF" stroke-width="1"/><path fill="#8d4653" d="M 332 224 L 336 232 328 232 Z" stroke="#FFFFFF" stroke-width="1"/><path fill="#8d4653" d="M 9 224 L 13 232 5 232 Z" stroke="#FFFFFF" stroke-width="1"/></g><g class="highcharts-series" visibility="visible" zIndex="0.1" transform="translate(68,60) scale(1 1)" clip-path="url(#highcharts-1)"><path fill="none" d="M 9.676470588226666 228 C 9.676470588226666 228 203.20588235293602 228 332.22549019607555 228 C 461.2450980392152 228 525.7549019607849 228 654.7745098039245 207.33180913765523 C 783.794117647064 186.66361827531045 977.3235294117734 49.52223870480006 977.3235294117734 49.52223870480006" stroke="#91e8e1" stroke-width="2" zIndex="1" stroke-linejoin="round" stroke-linecap="round"/><path fill="none" d="M -0.3235294117733343 228 L 9.676470588226666 228 C 9.676470588226666 228 203.20588235293602 228 332.22549019607555 228 C 461.2450980392152 228 525.7549019607849 228 654.7745098039245 207.33180913765523 C 783.794117647064 186.66361827531045 977.3235294117734 49.52223870480006 977.3235294117734 49.52223870480006 L 987.3235294117734 49.52223870480006" stroke-linejoin="round" visibility="visible" stroke="rgba(192,192,192,0.0001)" stroke-width="22" zIndex="2" class=" highcharts-tracker" style="cursor:pointer;"/></g><g class="highcharts-markers highcharts-tracker" visibility="visible" zIndex="0.1" transform="translate(68,60) scale(1 1)" clip-path="none" style="cursor:pointer;"><path fill="#91e8e1" d="M 973 45.52223870480006 L 981 45.52223870480006 977 53.52223870480006 Z" stroke="#FFFFFF" stroke-width="1"/><path fill="#91e8e1" d="M 650 203.33180913765523 L 658 203.33180913765523 654 211.33180913765523 Z" stroke="#FFFFFF" stroke-width="1"/><path fill="#91e8e1" d="M 328 224 L 336 224 332 232 Z" stroke="#FFFFFF" stroke-width="1"/><path fill="#91e8e1" d="M 5 224 L 13 224 9 232 Z" stroke="#FFFFFF" stroke-width="1"/></g><g class="highcharts-series" visibility="visible" zIndex="0.1" transform="translate(68,60) scale(1 1)" clip-path="url(#highcharts-1)"><path fill="none" d="M 9.676470588226666 202.8505176540012 C 9.676470588226666 202.8505176540012 203.20588235293602 204.3928938137454 332.22549019607555 204.3928938137454 C 461.2450980392152 204.3928938137454 525.7549019607849 204.3928938137454 654.7745098039245 194.93089462024835 C 783.794117647064 185.46889542675132 977.3235294117734 49.52223870480006 977.3235294117734 49.52223870480006" stroke="#7cb5ec" stroke-width="2" zIndex="1" stroke-linejoin="round" stroke-linecap="round"/><path fill="none" d="M -0.3235294117733343 202.8505176540012 L 9.676470588226666 202.8505176540012 C 9.676470588226666 202.8505176540012 203.20588235293602 204.3928938137454 332.22549019607555 204.3928938137454 C 461.2450980392152 204.3928938137454 525.7549019607849 204.3928938137454 654.7745098039245 194.93089462024835 C 783.794117647064 185.46889542675132 977.3235294117734 49.52223870480006 977.3235294117734 49.52223870480006 L 987.3235294117734 49.52223870480006" stroke-linejoin="round" visibility="visible" stroke="rgba(192,192,192,0.0001)" stroke-width="22" zIndex="2" class=" highcharts-tracker" style="cursor:pointer;"/></g><g class="highcharts-markers highcharts-tracker" visibility="visible" zIndex="0.1" transform="translate(68,60) scale(1 1)" clip-path="none" style="cursor:pointer;"><path fill="#7cb5ec" d="M 977 45.52223870480006 C 982.328 45.52223870480006 982.328 53.52223870480006 977 53.52223870480006 C 971.672 53.52223870480006 971.672 45.52223870480006 977 45.52223870480006 Z" stroke="#FFFFFF" stroke-width="1"/><path fill="#7cb5ec" d="M 654 190.93089462024835 C 659.328 190.93089462024835 659.328 198.93089462024835 654 198.93089462024835 C 648.672 198.93089462024835 648.672 190.93089462024835 654 190.93089462024835 Z" stroke="#FFFFFF" stroke-width="1"/><path fill="#7cb5ec" d="M 332 200.3928938137454 C 337.328 200.3928938137454 337.328 208.3928938137454 332 208.3928938137454 C 326.672 208.3928938137454 326.672 200.3928938137454 332 200.3928938137454 Z" stroke="#FFFFFF" stroke-width="1"/><path fill="#7cb5ec" d="M 9 198.8505176540012 C 14.328 198.8505176540012 14.328 206.8505176540012 9 206.8505176540012 C 3.6719999999999997 206.8505176540012 3.6719999999999997 198.8505176540012 9 198.8505176540012 Z" stroke="#FFFFFF" stroke-width="1"/></g><g class="highcharts-series" visibility="visible" zIndex="0.1" transform="translate(68,60) scale(1 1)" clip-path="url(#highcharts-1)"><path fill="none" d="M 9.676470588226666 228 C 9.676470588226666 228 203.20588235293602 228 332.22549019607555 228 C 461.2450980392152 228 525.7549019607849 190.7972564477795 654.7745098039245 190.7972564477795 C 783.794117647064 190.7972564477795 977.3235294117734 228 977.3235294117734 228" stroke="#434348" stroke-width="2" zIndex="1" stroke-linejoin="round" stroke-linecap="round"/><path fill="none" d="M -0.3235294117733343 228 L 9.676470588226666 228 C 9.676470588226666 228 203.20588235293602 228 332.22549019607555 228 C 461.2450980392152 228 525.7549019607849 190.7972564477795 654.7745098039245 190.7972564477795 C 783.794117647064 190.7972564477795 977.3235294117734 228 977.3235294117734 228 L 987.3235294117734 228" stroke-linejoin="round" visibility="visible" stroke="rgba(192,192,192,0.0001)" stroke-width="22" zIndex="2" class=" highcharts-tracker" style="cursor:pointer;"/></g><g class="highcharts-markers highcharts-tracker" visibility="visible" zIndex="0.1" transform="translate(68,60) scale(1 1)" clip-path="none" style="cursor:pointer;"><path fill="#434348" d="M 977 224 L 981 228 977 232 973 228 Z" stroke="#FFFFFF" stroke-width="1"/><path fill="#434348" d="M 654.7745098039245 186.7972564477795 L 658.7745098039245 190.7972564477795 654.7745098039245 194.7972564477795 650.7745098039245 190.7972564477795 Z" stroke="#FFFFFF" stroke-width="1"/><path fill="#434348" d="M 332 224 L 336 228 332 232 328 228 Z" stroke="#FFFFFF" stroke-width="1"/><path fill="#434348" d="M 9 224 L 13 228 9 232 5 228 Z" stroke="#FFFFFF" stroke-width="1"/></g><g class="highcharts-series" visibility="visible" zIndex="0.1" transform="translate(68,60) scale(1 1)" clip-path="url(#highcharts-1)"><path fill="none" d="M 9.676470588226666 228 C 9.676470588226666 228 203.20588235293602 228 332.22549019607555 228 C 461.2450980392152 228 525.7549019607849 228 654.7745098039245 228 C 783.794117647064 228 977.3235294117734 49.52223870480006 977.3235294117734 49.52223870480006" stroke="#90ed7d" stroke-width="2" zIndex="1" stroke-linejoin="round" stroke-linecap="round"/><path fill="none" d="M -0.3235294117733343 228 L 9.676470588226666 228 C 9.676470588226666 228 203.20588235293602 228 332.22549019607555 228 C 461.2450980392152 228 525.7549019607849 228 654.7745098039245 228 C 783.794117647064 228 977.3235294117734 49.52223870480006 977.3235294117734 49.52223870480006 L 987.3235294117734 49.52223870480006" stroke-linejoin="round" visibility="visible" stroke="rgba(192,192,192,0.0001)" stroke-width="22" zIndex="2" class=" highcharts-tracker" style="cursor:pointer;"/></g><g class="highcharts-markers highcharts-tracker" visibility="visible" zIndex="0.1" transform="translate(68,60) scale(1 1)" clip-path="none" style="cursor:pointer;"><path fill="#90ed7d" d="M 973.3235294117734 45.52223870480006 L 981.3235294117734 45.52223870480006 981.3235294117734 53.52223870480006 973.3235294117734 53.52223870480006 Z" stroke="#FFFFFF" stroke-width="1"/><path fill="#90ed7d" d="M 650.7745098039245 224 L 658.7745098039245 224 658.7745098039245 232 650.7745098039245 232 Z" stroke="#FFFFFF" stroke-width="1"/><path fill="#90ed7d" d="M 328 224 L 336 224 336 232 328 232 Z" stroke="#FFFFFF" stroke-width="1"/><path fill="#90ed7d" d="M 5 224 L 13 224 13 232 5 232 Z" stroke="#FFFFFF" stroke-width="1"/></g><g class="highcharts-series" visibility="visible" zIndex="0.1" transform="translate(68,60) scale(1 1)" clip-path="url(#highcharts-1)"><path fill="none" d="M 9.676470588226666 228 C 9.676470588226666 228 203.20588235293602 228 332.22549019607555 228 C 461.2450980392152 228 525.7549019607849 226.99520580454623 654.7745098039245 203.19817096518625 C 783.794117647064 179.4011361258263 977.3235294117734 109.01482580320015 977.3235294117734 109.01482580320015" stroke="#f7a35c" stroke-width="2" zIndex="1" stroke-linejoin="round" stroke-linecap="round"/><path fill="none" d="M -0.3235294117733343 228 L 9.676470588226666 228 C 9.676470588226666 228 203.20588235293602 228 332.22549019607555 228 C 461.2450980392152 228 525.7549019607849 226.99520580454623 654.7745098039245 203.19817096518625 C 783.794117647064 179.4011361258263 977.3235294117734 109.01482580320015 977.3235294117734 109.01482580320015 L 987.3235294117734 109.01482580320015" stroke-linejoin="round" visibility="visible" stroke="rgba(192,192,192,0.0001)" stroke-width="22" zIndex="2" class=" highcharts-tracker" style="cursor:pointer;"/></g><g class="highcharts-markers highcharts-tracker" visibility="visible" zIndex="0.1" transform="translate(68,60) scale(1 1)" clip-path="none" style="cursor:pointer;"><path fill="#f7a35c" d="M 977 105.01482580320015 L 981 113.01482580320015 973 113.01482580320015 Z" stroke="#FFFFFF" stroke-width="1"/><path fill="#f7a35c" d="M 654 199.19817096518625 L 658 207.19817096518625 650 207.19817096518625 Z" stroke="#FFFFFF" stroke-width="1"/><path fill="#f7a35c" d="M 332 224 L 336 232 328 232 Z" stroke="#FFFFFF" stroke-width="1"/><path fill="#f7a35c" d="M 9 224 L 13 232 5 232 Z" stroke="#FFFFFF" stroke-width="1"/></g><g class="highcharts-series" visibility="visible" zIndex="0.1" transform="translate(68,60) scale(1 1)" clip-path="url(#highcharts-1)"><path fill="none" d="M 9.676470588226666 228 C 9.676470588226666 228 203.20588235293602 228 332.22549019607555 228 C 461.2450980392152 228 525.7549019607849 170.12906558543466 654.7745098039245 170.12906558543466 C 783.794117647064 170.12906558543466 977.3235294117734 228 977.3235294117734 228" stroke="#8085e9" stroke-width="2" zIndex="1" stroke-linejoin="round" stroke-linecap="round"/><path fill="none" d="M -0.3235294117733343 228 L 9.676470588226666 228 C 9.676470588226666 228 203.20588235293602 228 332.22549019607555 228 C 461.2450980392152 228 525.7549019607849 170.12906558543466 654.7745098039245 170.12906558543466 C 783.794117647064 170.12906558543466 977.3235294117734 228 977.3235294117734 228 L 987.3235294117734 228" stroke-linejoin="round" visibility="visible" stroke="rgba(192,192,192,0.0001)" stroke-width="22" zIndex="2" class=" highcharts-tracker" style="cursor:pointer;"/></g><g class="highcharts-markers highcharts-tracker" visibility="visible" zIndex="0.1" transform="translate(68,60) scale(1 1)" clip-path="none" style="cursor:pointer;"><path fill="#8085e9" d="M 973 224 L 981 224 977 232 Z" stroke="#FFFFFF" stroke-width="1"/><path fill="#8085e9" d="M 650.7745098039245 166.12906558543466 L 658.7745098039245 166.12906558543466 654.7745098039245 174.12906558543466 Z" stroke="#FFFFFF" stroke-width="1"/><path fill="#8085e9" d="M 328.22549019607555 224 L 336.22549019607555 224 332.22549019607555 232 Z" stroke="#FFFFFF" stroke-width="1"/><path fill="#8085e9" d="M 5 224 L 13 224 9 232 Z" stroke="#FFFFFF" stroke-width="1"/></g><g class="highcharts-series" visibility="visible" zIndex="0.1" transform="translate(68,60) scale(1 1)" clip-path="url(#highcharts-1)"><path fill="none" d="M 9.676470588226666 228 C 9.676470588226666 228 203.20588235293602 228 332.22549019607555 228 C 461.2450980392152 228 525.7549019607849 213.96852249173637 654.7745098039245 194.93089462024835 C 783.794117647064 175.89326674876037 977.3235294117734 132.81186064256002 977.3235294117734 132.81186064256002" stroke="#f15c80" stroke-width="2" zIndex="1" stroke-linejoin="round" stroke-linecap="round"/><path fill="none" d="M -0.3235294117733343 228 L 9.676470588226666 228 C 9.676470588226666 228 203.20588235293602 228 332.22549019607555 228 C 461.2450980392152 228 525.7549019607849 213.96852249173637 654.7745098039245 194.93089462024835 C 783.794117647064 175.89326674876037 977.3235294117734 132.81186064256002 977.3235294117734 132.81186064256002 L 987.3235294117734 132.81186064256002" stroke-linejoin="round" visibility="visible" stroke="rgba(192,192,192,0.0001)" stroke-width="22" zIndex="2" class=" highcharts-tracker" style="cursor:pointer;"/></g><g class="highcharts-markers highcharts-tracker" visibility="visible" zIndex="0.1" transform="translate(68,60) scale(1 1)" clip-path="none" style="cursor:pointer;"><path fill="#f15c80" d="M 977 128.81186064256002 C 982.328 128.81186064256002 982.328 136.81186064256002 977 136.81186064256002 C 971.672 136.81186064256002 971.672 128.81186064256002 977 128.81186064256002 Z" stroke="#FFFFFF" stroke-width="1"/><path fill="#f15c80" d="M 654.7745098039245 190.93089462024835 C 660.1025098039245 190.93089462024835 660.1025098039245 198.93089462024835 654.7745098039245 198.93089462024835 C 649.4465098039245 198.93089462024835 649.4465098039245 190.93089462024835 654.7745098039245 190.93089462024835 Z" stroke="#FFFFFF" stroke-width="1"/><path fill="#f15c80" d="M 332 224 C 337.328 224 337.328 232 332 232 C 326.672 232 326.672 224 332 224 Z" stroke="#FFFFFF" stroke-width="1"/><path fill="#f15c80" d="M 9 224 C 14.328 224 14.328 232 9 232 C 3.6719999999999997 232 3.6719999999999997 224 9 224 Z" stroke="#FFFFFF" stroke-width="1"/></g><g class="highcharts-series" visibility="visible" zIndex="0.1" transform="translate(68,60) scale(1 1)" clip-path="url(#highcharts-1)"><path fill="none" d="M 9.676470588226666 177.70103530800236 C 9.676470588226666 177.70103530800236 203.20588235293602 228 332.22549019607555 228 C 461.2450980392152 228 525.7549019607849 228 654.7745098039245 228 C 783.794117647064 228 977.3235294117734 228 977.3235294117734 228" stroke="#e4d354" stroke-width="2" zIndex="1" stroke-linejoin="round" stroke-linecap="round"/><path fill="none" d="M -0.3235294117733343 177.70103530800236 L 9.676470588226666 177.70103530800236 C 9.676470588226666 177.70103530800236 203.20588235293602 228 332.22549019607555 228 C 461.2450980392152 228 525.7549019607849 228 654.7745098039245 228 C 783.794117647064 228 977.3235294117734 228 977.3235294117734 228 L 987.3235294117734 228" stroke-linejoin="round" visibility="visible" stroke="rgba(192,192,192,0.0001)" stroke-width="22" zIndex="2" class=" highcharts-tracker" style="cursor:pointer;"/></g><g class="highcharts-markers highcharts-tracker" visibility="visible" zIndex="0.1" transform="translate(68,60) scale(1 1)" clip-path="none" style="cursor:pointer;"><path fill="#e4d354" d="M 977 224 L 981 228 977 232 973 228 Z" stroke="#FFFFFF" stroke-width="1"/><path fill="#e4d354" d="M 654 224 L 658 228 654 232 650 228 Z" stroke="#FFFFFF" stroke-width="1"/><path fill="#e4d354" d="M 332 224 L 336 228 332 232 328 228 Z" stroke="#FFFFFF" stroke-width="1"/><path fill="#e4d354" d="M 9 173.70103530800236 L 13 177.70103530800236 9 181.70103530800236 5 177.70103530800236 Z" stroke="#FFFFFF" stroke-width="1"/></g><g class="highcharts-series" visibility="visible" zIndex="0.1" transform="translate(68,60) scale(1 1)" clip-path="url(#highcharts-1)"><path fill="none" d="M 9.676470588226666 228 C 9.676470588226666 228 203.20588235293602 228 332.22549019607555 228 C 461.2450980392152 228 525.7549019607849 228 654.7745098039245 228 C 783.794117647064 228 977.3235294117734 120.91334322287992 977.3235294117734 120.91334322287992" stroke="#8085e8" stroke-width="2" zIndex="1" stroke-linejoin="round" stroke-linecap="round"/><path fill="none" d="M -0.3235294117733343 228 L 9.676470588226666 228 C 9.676470588226666 228 203.20588235293602 228 332.22549019607555 228 C 461.2450980392152 228 525.7549019607849 228 654.7745098039245 228 C 783.794117647064 228 977.3235294117734 120.91334322287992 977.3235294117734 120.91334322287992 L 987.3235294117734 120.91334322287992" stroke-linejoin="round" visibility="visible" stroke="rgba(192,192,192,0.0001)" stroke-width="22" zIndex="2" class=" highcharts-tracker" style="cursor:pointer;"/></g><g class="highcharts-markers highcharts-tracker" visibility="visible" zIndex="0.1" transform="translate(68,60) scale(1 1)" clip-path="none" style="cursor:pointer;"><path fill="#8085e8" d="M 973 116.91334322287992 L 981 116.91334322287992 981 124.91334322287992 973 124.91334322287992 Z" stroke="#FFFFFF" stroke-width="1"/><path fill="#8085e8" d="M 650.7745098039245 224 L 658.7745098039245 224 658.7745098039245 232 650.7745098039245 232 Z" stroke="#FFFFFF" stroke-width="1"/><path fill="#8085e8" d="M 328.22549019607555 224 L 336.22549019607555 224 336.22549019607555 232 328.22549019607555 232 Z" stroke="#FFFFFF" stroke-width="1"/><path fill="#8085e8" d="M 5 224 L 13 224 13 232 5 232 Z" stroke="#FFFFFF" stroke-width="1"/></g><g class="highcharts-series" visibility="visible" zIndex="0.1" transform="translate(68,60) scale(1 1)" clip-path="url(#highcharts-1)"><path fill="none" d="M 9.676470588226666 228 C 9.676470588226666 228 203.20588235293602 228 332.22549019607555 228 C 461.2450980392152 228 525.7549019607849 219.85609535273824 654.7745098039245 203.19817096518625 C 783.794117647064 186.5402465776343 977.3235294117734 144.71037806224007 977.3235294117734 144.71037806224007" stroke="#8d4653" stroke-width="2" zIndex="1" stroke-linejoin="round" stroke-linecap="round"/><path fill="none" d="M -0.3235294117733343 228 L 9.676470588226666 228 C 9.676470588226666 228 203.20588235293602 228 332.22549019607555 228 C 461.2450980392152 228 525.7549019607849 219.85609535273824 654.7745098039245 203.19817096518625 C 783.794117647064 186.5402465776343 977.3235294117734 144.71037806224007 977.3235294117734 144.71037806224007 L 987.3235294117734 144.71037806224007" stroke-linejoin="round" visibility="visible" stroke="rgba(192,192,192,0.0001)" stroke-width="22" zIndex="2" class=" highcharts-tracker" style="cursor:pointer;"/></g><g class="highcharts-markers highcharts-tracker" visibility="visible" zIndex="0.1" transform="translate(68,60) scale(1 1)" clip-path="none" style="cursor:pointer;"><path fill="#8d4653" d="M 977.3235294117734 140.71037806224007 L 981.3235294117734 148.71037806224007 973.3235294117734 148.71037806224007 Z" stroke="#FFFFFF" stroke-width="1"/><path fill="#8d4653" d="M 654.7745098039245 199.19817096518625 L 658.7745098039245 207.19817096518625 650.7745098039245 207.19817096518625 Z" stroke="#FFFFFF" stroke-width="1"/><path fill="#8d4653" d="M 332 224 L 336 232 328 232 Z" stroke="#FFFFFF" stroke-width="1"/><path fill="#8d4653" d="M 9 224 L 13 232 5 232 Z" stroke="#FFFFFF" stroke-width="1"/></g><g class="highcharts-series" visibility="visible" zIndex="0.1" transform="translate(68,60) scale(1 1)" clip-path="url(#highcharts-1)"><path fill="none" d="M 9.676470588226666 228 C 9.676470588226666 228 203.20588235293602 228 332.22549019607555 228 C 461.2450980392152 228 525.7549019607849 213.34275369633315 654.7745098039245 199.0645327927172 C 783.794117647064 184.78631188910123 977.3235294117734 156.60889548192014 977.3235294117734 156.60889548192014" stroke="#91e8e1" stroke-width="2" zIndex="1" stroke-linejoin="round" stroke-linecap="round"/><path fill="none" d="M -0.3235294117733343 228 L 9.676470588226666 228 C 9.676470588226666 228 203.20588235293602 228 332.22549019607555 228 C 461.2450980392152 228 525.7549019607849 213.34275369633315 654.7745098039245 199.0645327927172 C 783.794117647064 184.78631188910123 977.3235294117734 156.60889548192014 977.3235294117734 156.60889548192014 L 987.3235294117734 156.60889548192014" stroke-linejoin="round" visibility="visible" stroke="rgba(192,192,192,0.0001)" stroke-width="22" zIndex="2" class=" highcharts-tracker" style="cursor:pointer;"/></g><g class="highcharts-markers highcharts-tracker" visibility="visible" zIndex="0.1" transform="translate(68,60) scale(1 1)" clip-path="none" style="cursor:pointer;"><path fill="#91e8e1" d="M 973.3235294117734 152.60889548192014 L 981.3235294117734 152.60889548192014 977.3235294117734 160.60889548192014 Z" stroke="#FFFFFF" stroke-width="1"/><path fill="#91e8e1" d="M 650.7745098039245 195.0645327927172 L 658.7745098039245 195.0645327927172 654.7745098039245 203.0645327927172 Z" stroke="#FFFFFF" stroke-width="1"/><path fill="#91e8e1" d="M 328.22549019607555 224 L 336.22549019607555 224 332.22549019607555 232 Z" stroke="#FFFFFF" stroke-width="1"/><path fill="#91e8e1" d="M 5 224 L 13 224 9 232 Z" stroke="#FFFFFF" stroke-width="1"/></g></g><text x="636" text-anchor="middle" class="highcharts-title" zIndex="4" style="color:#333333;font-size:18px;fill:#333333;width:1207px;" y="25"><tspan>DiaCollo Profile</tspan></text><text x="636" text-anchor="middle" class="highcharts-subtitle" zIndex="4" style="color:#555555;fill:#555555;width:1207px;" y="46">Populismus</text><g class="highcharts-legend" zIndex="7" transform="translate(1075,58)"><g zIndex="1"><g><g class="highcharts-legend-item" zIndex="1" transform="translate(5,0)"><path fill="none" d="M 0 11 L 16 11" stroke-width="2" stroke="#7cb5ec"/><path fill="#7cb5ec" d="M 8 7 C 13.328 7 13.328 15 8 15 C 2.6719999999999997 15 2.6719999999999997 7 8 7 Z" stroke="#FFFFFF" stroke-width="1"/><text x="21" y="15" style="color:#333333;font-size:12px;font-weight:bold;cursor:pointer;fill:#333333;" text-anchor="start" zIndex="2">Demokratie/NN</text></g><g class="highcharts-legend-item" zIndex="1" transform="translate(5,14)"><path fill="none" d="M 0 11 L 16 11" stroke-width="2" stroke="#434348"/><path fill="#434348" d="M 8 7 L 12 11 8 15 4 11 Z" stroke="#FFFFFF" stroke-width="1"/><text x="21" y="15" style="color:#333333;font-size:12px;font-weight:bold;cursor:pointer;fill:#333333;" text-anchor="start" zIndex="2">Afd/NN</text></g><g class="highcharts-legend-item" zIndex="1" transform="translate(5,28)"><path fill="none" d="M 0 11 L 16 11" stroke-width="2" stroke="#90ed7d"/><path fill="#90ed7d" d="M 4 7 L 12 7 12 15 4 15 Z" stroke="#FFFFFF" stroke-width="1"/><text x="21" y="15" style="color:#333333;font-size:12px;font-weight:bold;cursor:pointer;fill:#333333;" text-anchor="start" zIndex="2">Opposition/NN</text></g><g class="highcharts-legend-item" zIndex="1" transform="translate(5,42)"><path fill="none" d="M 0 11 L 16 11" stroke-width="2" stroke="#f7a35c"/><path fill="#f7a35c" d="M 8 7 L 12 15 4 15 Z" stroke="#FFFFFF" stroke-width="1"/><text x="21" y="15" style="color:#333333;font-size:12px;font-weight:bold;cursor:pointer;fill:#333333;" text-anchor="start" zIndex="2">Partei/NN</text></g><g class="highcharts-legend-item" zIndex="1" transform="translate(5,56)"><path fill="none" d="M 0 11 L 16 11" stroke-width="2" stroke="#8085e9"/><path fill="#8085e9" d="M 4 7 L 12 7 8 15 Z" stroke="#FFFFFF" stroke-width="1"/><text x="21" y="15" style="color:#333333;font-size:12px;font-weight:bold;cursor:pointer;fill:#333333;" text-anchor="start" zIndex="2">Europa/NE</text></g><g class="highcharts-legend-item" zIndex="1" transform="translate(5,70)"><path fill="none" d="M 0 11 L 16 11" stroke-width="2" stroke="#f15c80"/><path fill="#f15c80" d="M 8 7 C 13.328 7 13.328 15 8 15 C 2.6719999999999997 15 2.6719999999999997 7 8 7 Z" stroke="#FFFFFF" stroke-width="1"/><text x="21" y="15" style="color:#333333;font-size:12px;font-weight:bold;cursor:pointer;fill:#333333;" text-anchor="start" zIndex="2">werfen/VVFIN</text></g><g class="highcharts-legend-item" zIndex="1" transform="translate(5,84)"><path fill="none" d="M 0 11 L 16 11" stroke-width="2" stroke="#e4d354"/><path fill="#e4d354" d="M 8 7 L 12 11 8 15 4 11 Z" stroke="#FFFFFF" stroke-width="1"/><text x="21" y="15" style="color:#333333;font-size:12px;font-weight:bold;cursor:pointer;fill:#333333;" text-anchor="start" zIndex="2">Frage/NN</text></g><g class="highcharts-legend-item" zIndex="1" transform="translate(5,98)"><path fill="none" d="M 0 11 L 16 11" stroke-width="2" stroke="#8085e8"/><path fill="#8085e8" d="M 4 7 L 12 7 12 15 4 15 Z" stroke="#FFFFFF" stroke-width="1"/><text x="21" y="15" style="color:#333333;font-size:12px;font-weight:bold;cursor:pointer;fill:#333333;" text-anchor="start" zIndex="2">sagen/VVFIN</text></g><g class="highcharts-legend-item" zIndex="1" transform="translate(5,112)"><path fill="none" d="M 0 11 L 16 11" stroke-width="2" stroke="#8d4653"/><path fill="#8d4653" d="M 8 7 L 12 15 4 15 Z" stroke="#FFFFFF" stroke-width="1"/><text x="21" y="15" style="color:#333333;font-size:12px;font-weight:bold;cursor:pointer;fill:#333333;" text-anchor="start" zIndex="2">link/ADJA</text></g><g class="highcharts-legend-item" zIndex="1" transform="translate(5,126)"><path fill="none" d="M 0 11 L 16 11" stroke-width="2" stroke="#91e8e1"/><path fill="#91e8e1" d="M 4 7 L 12 7 8 15 Z" stroke="#FFFFFF" stroke-width="1"/><text x="21" y="15" style="color:#333333;font-size:12px;font-weight:bold;cursor:pointer;fill:#333333;" text-anchor="start" zIndex="2">recht/ADJA</text></g><g class="highcharts-legend-item" zIndex="1" transform="translate(5,140)"><path fill="none" d="M 0 11 L 16 11" stroke-width="2" stroke="#7cb5ec"/><path fill="#7cb5ec" d="M 8 7 C 13.328 7 13.328 15 8 15 C 2.6719999999999997 15 2.6719999999999997 7 8 7 Z" stroke="#FFFFFF" stroke-width="1"/><text x="21" y="15" style="color:#333333;font-size:12px;font-weight:bold;cursor:pointer;fill:#333333;" text-anchor="start" zIndex="2">politisch/ADJA</text></g><g class="highcharts-legend-item" zIndex="1" transform="translate(5,154)"><path fill="none" d="M 0 11 L 16 11" stroke-width="2" stroke="#434348"/><path fill="#434348" d="M 8 7 L 12 11 8 15 4 11 Z" stroke="#FFFFFF" stroke-width="1"/><text x="21" y="15" style="color:#333333;font-size:12px;font-weight:bold;cursor:pointer;fill:#333333;" text-anchor="start" zIndex="2">Land/NN</text></g><g class="highcharts-legend-item" zIndex="1" transform="translate(5,168)"><path fill="none" d="M 0 11 L 16 11" stroke-width="2" stroke="#90ed7d"/><path fill="#90ed7d" d="M 4 7 L 12 7 12 15 4 15 Z" stroke="#FFFFFF" stroke-width="1"/><text x="21" y="15" style="color:#333333;font-size:12px;font-weight:bold;cursor:pointer;fill:#333333;" text-anchor="start" zIndex="2">Zeit/NN</text></g><g class="highcharts-legend-item" zIndex="1" transform="translate(5,182)"><path fill="none" d="M 0 11 L 16 11" stroke-width="2" stroke="#f7a35c"/><path fill="#f7a35c" d="M 8 7 L 12 15 4 15 Z" stroke="#FFFFFF" stroke-width="1"/><text x="21" y="15" style="color:#333333;font-size:12px;font-weight:bold;cursor:pointer;fill:#333333;" text-anchor="start" zIndex="2">neu/ADJA</text></g><g class="highcharts-legend-item" zIndex="1" transform="translate(5,196)"><path fill="none" d="M 0 11 L 16 11" stroke-width="2" stroke="#8085e9"/><path fill="#8085e9" d="M 4 7 L 12 7 8 15 Z" stroke="#FFFFFF" stroke-width="1"/><text x="21" y="15" style="color:#333333;font-size:12px;font-weight:bold;cursor:pointer;fill:#333333;" text-anchor="start" zIndex="2">Nationalismus/NN</text></g><g class="highcharts-legend-item" zIndex="1" transform="translate(5,210)"><path fill="none" d="M 0 11 L 16 11" stroke-width="2" stroke="#f15c80"/><path fill="#f15c80" d="M 8 7 C 13.328 7 13.328 15 8 15 C 2.6719999999999997 15 2.6719999999999997 7 8 7 Z" stroke="#FFFFFF" stroke-width="1"/><text x="21" y="15" style="color:#333333;font-size:12px;font-weight:bold;cursor:pointer;fill:#333333;" text-anchor="start" zIndex="2">Populismus/NN</text></g><g class="highcharts-legend-item" zIndex="1" transform="translate(5,224)"><path fill="none" d="M 0 11 L 16 11" stroke-width="2" stroke="#e4d354"/><path fill="#e4d354" d="M 8 7 L 12 11 8 15 4 11 Z" stroke="#FFFFFF" stroke-width="1"/><text x="21" y="15" style="color:#333333;font-size:12px;font-weight:bold;cursor:pointer;fill:#333333;" text-anchor="start" zIndex="2">Christlich-Soziale_Union/NE</text></g><g class="highcharts-legend-item" zIndex="1" transform="translate(5,238)"><path fill="none" d="M 0 11 L 16 11" stroke-width="2" stroke="#8085e8"/><path fill="#8085e8" d="M 4 7 L 12 7 12 15 4 15 Z" stroke="#FFFFFF" stroke-width="1"/><text x="21" y="15" style="color:#333333;font-size:12px;font-weight:bold;cursor:pointer;fill:#333333;" text-anchor="start" zIndex="2">Volk/NN</text></g><g class="highcharts-legend-item" zIndex="1" transform="translate(5,252)"><path fill="none" d="M 0 11 L 16 11" stroke-width="2" stroke="#8d4653"/><path fill="#8d4653" d="M 8 7 L 12 15 4 15 Z" stroke="#FFFFFF" stroke-width="1"/><text x="21" y="15" style="color:#333333;font-size:12px;font-weight:bold;cursor:pointer;fill:#333333;" text-anchor="start" zIndex="2">Antwort/NN</text></g><g class="highcharts-legend-item" zIndex="1" transform="translate(5,266)"><path fill="none" d="M 0 11 L 16 11" stroke-width="2" stroke="#91e8e1"/><path fill="#91e8e1" d="M 4 7 L 12 7 8 15 Z" stroke="#FFFFFF" stroke-width="1"/><text x="21" y="15" style="color:#333333;font-size:12px;font-weight:bold;cursor:pointer;fill:#333333;" text-anchor="start" zIndex="2">Politik/NN</text></g></g></g></g><g class="highcharts-axis-labels highcharts-xaxis-labels" zIndex="7"><text x="77.67647058822666" text-anchor="middle" style="color:#606060;cursor:default;font-size:11px;fill:#606060;" y="365" opacity="1">2014</text><text x="158.3137254901889" text-anchor="middle" style="color:#606060;cursor:default;font-size:11px;fill:#606060;" y="365" opacity="1">2014.25</text><text x="238.9509803921511" text-anchor="middle" style="color:#606060;cursor:default;font-size:11px;fill:#606060;" y="365" opacity="1">2014.5</text><text x="319.58823529411336" text-anchor="middle" style="color:#606060;cursor:default;font-size:11px;fill:#606060;" y="365" opacity="1">2014.75</text><text x="400.22549019607555" text-anchor="middle" style="color:#606060;cursor:default;font-size:11px;fill:#606060;" y="365" opacity="1">2015</text><text x="480.8627450980378" text-anchor="middle" style="color:#606060;cursor:default;font-size:11px;fill:#606060;" y="365" opacity="1">2015.25</text><text x="561.5" text-anchor="middle" style="color:#606060;cursor:default;font-size:11px;fill:#606060;" y="365" opacity="1">2015.5</text><text x="642.1372549019623" text-anchor="middle" style="color:#606060;cursor:default;font-size:11px;fill:#606060;" y="365" opacity="1">2015.75</text><text x="722.7745098039245" text-anchor="middle" style="color:#606060;cursor:default;font-size:11px;fill:#606060;" y="365" opacity="1">2016</text><text x="803.4117647058866" text-anchor="middle" style="color:#606060;cursor:default;font-size:11px;fill:#606060;" y="365" opacity="1">2016.25</text><text x="884.0490196078489" text-anchor="middle" style="color:#606060;cursor:default;font-size:11px;fill:#606060;" y="365" opacity="1">2016.5</text><text x="964.6862745098111" text-anchor="middle" style="color:#606060;cursor:default;font-size:11px;fill:#606060;" y="365" opacity="1">2016.75</text><text x="1045.3235294117735" text-anchor="middle" style="color:#606060;cursor:default;font-size:11px;fill:#606060;" y="365" opacity="1">2017</text></g><g class="highcharts-axis-labels highcharts-yaxis-labels" zIndex="7"><text x="53" text-anchor="end" style="width:399px;color:#606060;cursor:default;font-size:11px;fill:#606060;" y="350.5" opacity="1">-0.2</text><text x="53" text-anchor="end" style="width:399px;color:#606060;cursor:default;font-size:11px;fill:#606060;" y="293.5" opacity="1">0</text><text x="53" text-anchor="end" style="width:399px;color:#606060;cursor:default;font-size:11px;fill:#606060;" y="236.5" opacity="1">0.2</text><text x="53" text-anchor="end" style="width:399px;color:#606060;cursor:default;font-size:11px;fill:#606060;" y="179.49999999999997" opacity="1">0.4</text><text x="53" text-anchor="end" style="width:399px;color:#606060;cursor:default;font-size:11px;fill:#606060;" y="122.5" opacity="1">0.6</text><text x="53" text-anchor="end" style="width:399px;color:#606060;cursor:default;font-size:11px;fill:#606060;" y="65.5" opacity="1">0.8</text></g><g class="highcharts-tooltip" zIndex="8" style="cursor:default;padding:0;white-space:nowrap;" transform="translate(624,198)" opacity="0" visibility="hidden"><path fill="none" d="M 3.5 0.5 L 198.5 0.5 C 201.5 0.5 201.5 0.5 201.5 3.5 L 201.5 42.5 C 201.5 45.5 201.5 45.5 198.5 45.5 L 105.5 45.5 99.5 51.5 93.5 45.5 3.5 45.5 C 0.5 45.5 0.5 45.5 0.5 42.5 L 0.5 3.5 C 0.5 0.5 0.5 0.5 3.5 0.5" stroke-width="5" isShadow="true" stroke="black" stroke-opacity="0.049999999999999996" transform="translate(1, 1)" width="201" height="45"/><path fill="none" d="M 3.5 0.5 L 198.5 0.5 C 201.5 0.5 201.5 0.5 201.5 3.5 L 201.5 42.5 C 201.5 45.5 201.5 45.5 198.5 45.5 L 105.5 45.5 99.5 51.5 93.5 45.5 3.5 45.5 C 0.5 45.5 0.5 45.5 0.5 42.5 L 0.5 3.5 C 0.5 0.5 0.5 0.5 3.5 0.5" stroke-width="3" isShadow="true" stroke="black" stroke-opacity="0.09999999999999999" transform="translate(1, 1)" width="201" height="45"/><path fill="none" d="M 3.5 0.5 L 198.5 0.5 C 201.5 0.5 201.5 0.5 201.5 3.5 L 201.5 42.5 C 201.5 45.5 201.5 45.5 198.5 45.5 L 105.5 45.5 99.5 51.5 93.5 45.5 3.5 45.5 C 0.5 45.5 0.5 45.5 0.5 42.5 L 0.5 3.5 C 0.5 0.5 0.5 0.5 3.5 0.5" stroke-width="1" isShadow="true" stroke="black" stroke-opacity="0.15" transform="translate(1, 1)" width="201" height="45"/><path fill="rgba(249, 249, 249, .85)" d="M 3.5 0.5 L 198.5 0.5 C 201.5 0.5 201.5 0.5 201.5 3.5 L 201.5 42.5 C 201.5 45.5 201.5 45.5 198.5 45.5 L 105.5 45.5 99.5 51.5 93.5 45.5 3.5 45.5 C 0.5 45.5 0.5 45.5 0.5 42.5 L 0.5 3.5 C 0.5 0.5 0.5 0.5 3.5 0.5" stroke-width="1" stroke="#91e8e1"/><text x="8" zIndex="1" style="font-size:12px;color:#333333;fill:#333333;" y="21"><tspan style="font-size: 10px">2016</tspan><tspan style="fill:#91e8e1" x="8" dy="16"></tspan><tspan dx="0"> Politik/NN: </tspan><tspan style="font-weight:bold" dx="0">0.101527955113273</tspan></text></g></svg>