<?xml version="1.0" encoding="UTF-8" standalone="no"?>
<svg xmlns:xlink="http://www.w3.org/1999/xlink" version="1.1" style="font-family:&quot;Lucida Grande&quot;, &quot;Lucida Sans Unicode&quot;, Arial, Helvetica, sans-serif;font-size:12px;" xmlns="http://www.w3.org/2000/svg" width="1271" height="400"><desc>Created with Highcharts 4.0.1</desc><defs><clipPath id="highcharts-1"><rect x="0" y="0" width="880" height="285"/></clipPath></defs><rect x="0" y="0" width="1271" height="400" strokeWidth="0" fill="#FFFFFF" class=" highcharts-background"/><g class="highcharts-button" style="cursor:default;" stroke-linecap="round" transform="translate(1237,10)"><title>Chart context menu</title><rect x="0.5" y="0.5" width="24" height="22" strokeWidth="1" fill="white" stroke-width="1" stroke="none" rx="2" ry="2"/><path fill="#E0E0E0" d="M 6 6.5 L 20 6.5 M 6 11.5 L 20 11.5 M 6 16.5 L 20 16.5" stroke="#666" stroke-width="3" zIndex="1"/><text x="0" zIndex="1" style="color:black;fill:black;" y="13"></text></g><g class="highcharts-grid" zIndex="1"/><g class="highcharts-grid" zIndex="1"><path fill="none" d="M 68 59.5 L 948 59.5" stroke="#C0C0C0" stroke-width="1" zIndex="1" opacity="1"/><path fill="none" d="M 68 117.5 L 948 117.5" stroke="#C0C0C0" stroke-width="1" zIndex="1" opacity="1"/><path fill="none" d="M 68 174.5 L 948 174.5" stroke="#C0C0C0" stroke-width="1" zIndex="1" opacity="1"/><path fill="none" d="M 68 231.5 L 948 231.5" stroke="#C0C0C0" stroke-width="1" zIndex="1" opacity="1"/><path fill="none" d="M 68 288.5 L 948 288.5" stroke="#C0C0C0" stroke-width="1" zIndex="1" opacity="1"/><path fill="none" d="M 68 345.5 L 948 345.5" stroke="#C0C0C0" stroke-width="1" zIndex="1" opacity="1"/></g><g class="highcharts-axis" zIndex="2"><path fill="none" d="M 199.5 345 L 199.5 355" stroke="#C0D0E0" stroke-width="1" opacity="1"/><path fill="none" d="M 322.5 345 L 322.5 355" stroke="#C0D0E0" stroke-width="1" opacity="1"/><path fill="none" d="M 445.5 345 L 445.5 355" stroke="#C0D0E0" stroke-width="1" opacity="1"/><path fill="none" d="M 569.5 345 L 569.5 355" stroke="#C0D0E0" stroke-width="1" opacity="1"/><path fill="none" d="M 692.5 345 L 692.5 355" stroke="#C0D0E0" stroke-width="1" opacity="1"/><path fill="none" d="M 815.5 345 L 815.5 355" stroke="#C0D0E0" stroke-width="1" opacity="1"/><path fill="none" d="M 938.5 345 L 938.5 355" stroke="#C0D0E0" stroke-width="1" opacity="1"/><path fill="none" d="M 76.5 345 L 76.5 355" stroke="#C0D0E0" stroke-width="1" opacity="1"/><text x="508" zIndex="7" text-anchor="middle" transform="translate(0,0)" class=" highcharts-xaxis-title" style="color:#707070;fill:#707070;" visibility="visible" y="383"><tspan>Date (slice)</tspan></text><path fill="none" d="M 68 345.5 L 948 345.5" stroke="#C0D0E0" stroke-width="1" zIndex="7" visibility="visible"/></g><g class="highcharts-axis" zIndex="2"><text x="24" zIndex="7" text-anchor="middle" transform="translate(0,0) rotate(270 24 202.5)" class=" highcharts-yaxis-title" style="color:#707070;fill:#707070;" visibility="visible" y="202.5"><tspan>Score (Frequency per Million)</tspan></text></g><g class="highcharts-series-group" zIndex="3"><g class="highcharts-series" visibility="visible" zIndex="0.1" transform="translate(68,60) scale(1 1)" clip-path="url(#highcharts-1)"><path fill="none" d="M 8.627450980384463 228 C 8.627450980384463 228 82.57703081231855 228 131.8767507002746 228 C 181.17647058823067 228 205.82633053220871 228 255.12605042016474 228 C 304.42577030812083 228 329.07563025209885 211.28213789506628 378.3753501400549 211.28213789506628 C 427.67507002801096 211.28213789506628 452.324929971989 228 501.62464985994507 228 C 550.9243697479011 228 575.5742296918792 228 624.8739495798352 228 C 674.1736694677913 228 698.8235294117693 215.09668838486624 748.1232492997253 203.19817096518625 C 797.4229691876815 191.29965354550623 871.3725490196155 168.50741290159993 871.3725490196155 168.50741290159993" stroke="#7cb5ec" stroke-width="2" zIndex="1" stroke-linejoin="round" stroke-linecap="round"/><path fill="none" d="M -1.372549019615537 228 L 8.627450980384463 228 C 8.627450980384463 228 82.57703081231855 228 131.8767507002746 228 C 181.17647058823067 228 205.82633053220871 228 255.12605042016474 228 C 304.42577030812083 228 329.07563025209885 211.28213789506628 378.3753501400549 211.28213789506628 C 427.67507002801096 211.28213789506628 452.324929971989 228 501.62464985994507 228 C 550.9243697479011 228 575.5742296918792 228 624.8739495798352 228 C 674.1736694677913 228 698.8235294117693 215.09668838486624 748.1232492997253 203.19817096518625 C 797.4229691876815 191.29965354550623 871.3725490196155 168.50741290159993 871.3725490196155 168.50741290159993 L 881.3725490196155 168.50741290159993" stroke-linejoin="round" visibility="visible" stroke="rgba(192,192,192,0.0001)" stroke-width="22" zIndex="2" class=" highcharts-tracker" style="cursor:pointer;"/></g><g class="highcharts-markers highcharts-tracker" visibility="visible" zIndex="0.1" transform="translate(68,60) scale(1 1)" clip-path="none" style="cursor:pointer;"><path fill="#7cb5ec" d="M 871 164.50741290159993 C 876.328 164.50741290159993 876.328 172.50741290159993 871 172.50741290159993 C 865.672 172.50741290159993 865.672 164.50741290159993 871 164.50741290159993 Z" stroke="#FFFFFF" stroke-width="1"/><path fill="#7cb5ec" d="M 748 199.19817096518625 C 753.328 199.19817096518625 753.328 207.19817096518625 748 207.19817096518625 C 742.672 207.19817096518625 742.672 199.19817096518625 748 199.19817096518625 Z" stroke="#FFFFFF" stroke-width="1"/><path fill="#7cb5ec" d="M 624 224 C 629.328 224 629.328 232 624 232 C 618.672 232 618.672 224 624 224 Z" stroke="#FFFFFF" stroke-width="1"/><path fill="#7cb5ec" d="M 501 224 C 506.328 224 506.328 232 501 232 C 495.672 232 495.672 224 501 224 Z" stroke="#FFFFFF" stroke-width="1"/><path fill="#7cb5ec" d="M 378 207.28213789506628 C 383.328 207.28213789506628 383.328 215.28213789506628 378 215.28213789506628 C 372.672 215.28213789506628 372.672 207.28213789506628 378 207.28213789506628 Z" stroke="#FFFFFF" stroke-width="1"/><path fill="#7cb5ec" d="M 255 224 C 260.328 224 260.328 232 255 232 C 249.672 232 249.672 224 255 224 Z" stroke="#FFFFFF" stroke-width="1"/><path fill="#7cb5ec" d="M 131 224 C 136.328 224 136.328 232 131 232 C 125.672 232 125.672 224 131 224 Z" stroke="#FFFFFF" stroke-width="1"/><path fill="#7cb5ec" d="M 8 224 C 13.328 224 13.328 232 8 232 C 2.6719999999999997 232 2.6719999999999997 224 8 224 Z" stroke="#FFFFFF" stroke-width="1"/></g><g class="highcharts-series" visibility="visible" zIndex="0.1" transform="translate(68,60) scale(1 1)" clip-path="url(#highcharts-1)"><path fill="none" d="M 8.627450980384463 228 C 8.627450980384463 228 82.57703081231855 228 131.8767507002746 228 C 181.17647058823067 228 205.82633053220871 228 255.12605042016474 228 C 304.42577030812083 228 329.07563025209885 228 378.3753501400549 228 C 427.67507002801096 228 452.324929971989 228 501.62464985994507 228 C 550.9243697479011 228 575.5742296918792 228 624.8739495798352 228 C 674.1736694677913 228 698.8235294117693 213.96852249173634 748.1232492997253 194.93089462024835 C 797.4229691876815 175.89326674876034 871.3725490196155 132.81186064256002 871.3725490196155 132.81186064256002" stroke="#434348" stroke-width="2" zIndex="1" stroke-linejoin="round" stroke-linecap="round"/><path fill="none" d="M -1.372549019615537 228 L 8.627450980384463 228 C 8.627450980384463 228 82.57703081231855 228 131.8767507002746 228 C 181.17647058823067 228 205.82633053220871 228 255.12605042016474 228 C 304.42577030812083 228 329.07563025209885 228 378.3753501400549 228 C 427.67507002801096 228 452.324929971989 228 501.62464985994507 228 C 550.9243697479011 228 575.5742296918792 228 624.8739495798352 228 C 674.1736694677913 228 698.8235294117693 213.96852249173634 748.1232492997253 194.93089462024835 C 797.4229691876815 175.89326674876034 871.3725490196155 132.81186064256002 871.3725490196155 132.81186064256002 L 881.3725490196155 132.81186064256002" stroke-linejoin="round" visibility="visible" stroke="rgba(192,192,192,0.0001)" stroke-width="22" zIndex="2" class=" highcharts-tracker" style="cursor:pointer;"/></g><g class="highcharts-markers highcharts-tracker" visibility="visible" zIndex="0.1" transform="translate(68,60) scale(1 1)" clip-path="none" style="cursor:pointer;"><path fill="#434348" d="M 871 128.81186064256002 L 875 132.81186064256002 871 136.81186064256002 867 132.81186064256002 Z" stroke="#FFFFFF" stroke-width="1"/><path fill="#434348" d="M 748 190.93089462024835 L 752 194.93089462024835 748 198.93089462024835 744 194.93089462024835 Z" stroke="#FFFFFF" stroke-width="1"/><path fill="#434348" d="M 624 224 L 628 228 624 232 620 228 Z" stroke="#FFFFFF" stroke-width="1"/><path fill="#434348" d="M 501 224 L 505 228 501 232 497 228 Z" stroke="#FFFFFF" stroke-width="1"/><path fill="#434348" d="M 378 224 L 382 228 378 232 374 228 Z" stroke="#FFFFFF" stroke-width="1"/><path fill="#434348" d="M 255 224 L 259 228 255 232 251 228 Z" stroke="#FFFFFF" stroke-width="1"/><path fill="#434348" d="M 131 224 L 135 228 131 232 127 228 Z" stroke="#FFFFFF" stroke-width="1"/><path fill="#434348" d="M 8 224 L 12 228 8 232 4 228 Z" stroke="#FFFFFF" stroke-width="1"/></g><g class="highcharts-series" visibility="visible" zIndex="0.1" transform="translate(68,60) scale(1 1)" clip-path="url(#highcharts-1)"><path fill="none" d="M 8.627450980384463 228 C 8.627450980384463 228 82.57703081231855 228 131.8767507002746 228 C 181.17647058823067 228 205.82633053220871 228 255.12605042016474 228 C 304.42577030812083 228 329.07563025209885 202.92320684259943 378.3753501400549 202.92320684259943 C 427.67507002801096 202.92320684259943 452.324929971989 228 501.62464985994507 228 C 550.9243697479011 228 575.5742296918792 228 624.8739495798352 228 C 674.1736694677913 228 698.8235294117693 170.12906558543466 748.1232492997253 170.12906558543466 C 797.4229691876815 170.12906558543466 871.3725490196155 228 871.3725490196155 228" stroke="#90ed7d" stroke-width="2" zIndex="1" stroke-linejoin="round" stroke-linecap="round"/><path fill="none" d="M -1.372549019615537 228 L 8.627450980384463 228 C 8.627450980384463 228 82.57703081231855 228 131.8767507002746 228 C 181.17647058823067 228 205.82633053220871 228 255.12605042016474 228 C 304.42577030812083 228 329.07563025209885 202.92320684259943 378.3753501400549 202.92320684259943 C 427.67507002801096 202.92320684259943 452.324929971989 228 501.62464985994507 228 C 550.9243697479011 228 575.5742296918792 228 624.8739495798352 228 C 674.1736694677913 228 698.8235294117693 170.12906558543466 748.1232492997253 170.12906558543466 C 797.4229691876815 170.12906558543466 871.3725490196155 228 871.3725490196155 228 L 881.3725490196155 228" stroke-linejoin="round" visibility="visible" stroke="rgba(192,192,192,0.0001)" stroke-width="22" zIndex="2" class=" highcharts-tracker" style="cursor:pointer;"/></g><g class="highcharts-markers highcharts-tracker" visibility="visible" zIndex="0.1" transform="translate(68,60) scale(1 1)" clip-path="none" style="cursor:pointer;"><path fill="#90ed7d" d="M 867 224 L 875 224 875 232 867 232 Z" stroke="#FFFFFF" stroke-width="1"/><path fill="#90ed7d" d="M 744 166.12906558543466 L 752 166.12906558543466 752 174.12906558543466 744 174.12906558543466 Z" stroke="#FFFFFF" stroke-width="1"/><path fill="#90ed7d" d="M 620 224 L 628 224 628 232 620 232 Z" stroke="#FFFFFF" stroke-width="1"/><path fill="#90ed7d" d="M 497 224 L 505 224 505 232 497 232 Z" stroke="#FFFFFF" stroke-width="1"/><path fill="#90ed7d" d="M 374 198.92320684259943 L 382 198.92320684259943 382 206.92320684259943 374 206.92320684259943 Z" stroke="#FFFFFF" stroke-width="1"/><path fill="#90ed7d" d="M 251 224 L 259 224 259 232 251 232 Z" stroke="#FFFFFF" stroke-width="1"/><path fill="#90ed7d" d="M 127 224 L 135 224 135 232 127 232 Z" stroke="#FFFFFF" stroke-width="1"/><path fill="#90ed7d" d="M 4 224 L 12 224 12 232 4 232 Z" stroke="#FFFFFF" stroke-width="1"/></g><g class="highcharts-series" visibility="visible" zIndex="0.1" transform="translate(68,60) scale(1 1)" clip-path="url(#highcharts-1)"><path fill="none" d="M 8.627450980384463 228 C 8.627450980384463 228 82.57703081231855 228 131.8767507002746 228 C 181.17647058823067 228 205.82633053220871 228 255.12605042016474 228 C 304.42577030812083 228 329.07563025209885 228 378.3753501400549 228 C 427.67507002801096 228 452.324929971989 228 501.62464985994507 228 C 550.9243697479011 228 575.5742296918792 220.23178527496412 624.8739495798352 211.13778129553242 C 674.1736694677913 202.04377731610072 698.8235294117693 182.52998010284148 748.1232492997253 182.52998010284148 C 797.4229691876815 182.52998010284148 871.3725490196155 228 871.3725490196155 228" stroke="#f7a35c" stroke-width="2" zIndex="1" stroke-linejoin="round" stroke-linecap="round"/><path fill="none" d="M -1.372549019615537 228 L 8.627450980384463 228 C 8.627450980384463 228 82.57703081231855 228 131.8767507002746 228 C 181.17647058823067 228 205.82633053220871 228 255.12605042016474 228 C 304.42577030812083 228 329.07563025209885 228 378.3753501400549 228 C 427.67507002801096 228 452.324929971989 228 501.62464985994507 228 C 550.9243697479011 228 575.5742296918792 220.23178527496412 624.8739495798352 211.13778129553242 C 674.1736694677913 202.04377731610072 698.8235294117693 182.52998010284148 748.1232492997253 182.52998010284148 C 797.4229691876815 182.52998010284148 871.3725490196155 228 871.3725490196155 228 L 881.3725490196155 228" stroke-linejoin="round" visibility="visible" stroke="rgba(192,192,192,0.0001)" stroke-width="22" zIndex="2" class=" highcharts-tracker" style="cursor:pointer;"/></g><g class="highcharts-markers highcharts-tracker" visibility="visible" zIndex="0.1" transform="translate(68,60) scale(1 1)" clip-path="none" style="cursor:pointer;"><path fill="#f7a35c" d="M 871 224 L 875 232 867 232 Z" stroke="#FFFFFF" stroke-width="1"/><path fill="#f7a35c" d="M 748 178.52998010284148 L 752 186.52998010284148 744 186.52998010284148 Z" stroke="#FFFFFF" stroke-width="1"/><path fill="#f7a35c" d="M 624 207.13778129553242 L 628 215.13778129553242 620 215.13778129553242 Z" stroke="#FFFFFF" stroke-width="1"/><path fill="#f7a35c" d="M 501 224 L 505 232 497 232 Z" stroke="#FFFFFF" stroke-width="1"/><path fill="#f7a35c" d="M 378 224 L 382 232 374 232 Z" stroke="#FFFFFF" stroke-width="1"/><path fill="#f7a35c" d="M 255 224 L 259 232 251 232 Z" stroke="#FFFFFF" stroke-width="1"/><path fill="#f7a35c" d="M 131 224 L 135 232 127 232 Z" stroke="#FFFFFF" stroke-width="1"/><path fill="#f7a35c" d="M 8 224 L 12 232 4 232 Z" stroke="#FFFFFF" stroke-width="1"/></g><g class="highcharts-series" visibility="visible" zIndex="0.1" transform="translate(68,60) scale(1 1)" clip-path="url(#highcharts-1)"><path fill="none" d="M 8.627450980384463 228 C 8.627450980384463 228 82.57703081231855 228 131.8767507002746 228 C 181.17647058823067 228 205.82633053220871 208.59189071407485 255.12605042016474 208.59189071407485 C 304.42577030812083 208.59189071407485 329.07563025209885 228 378.3753501400549 228 C 427.67507002801096 228 452.324929971989 228 501.62464985994507 228 C 550.9243697479011 228 575.5742296918792 211.13778129553242 624.8739495798352 211.13778129553242 C 674.1736694677913 211.13778129553242 698.8235294117693 228 748.1232492997253 228 C 797.4229691876815 228 871.3725490196155 228 871.3725490196155 228" stroke="#8085e9" stroke-width="2" zIndex="1" stroke-linejoin="round" stroke-linecap="round"/><path fill="none" d="M -1.372549019615537 228 L 8.627450980384463 228 C 8.627450980384463 228 82.57703081231855 228 131.8767507002746 228 C 181.17647058823067 228 205.82633053220871 208.59189071407485 255.12605042016474 208.59189071407485 C 304.42577030812083 208.59189071407485 329.07563025209885 228 378.3753501400549 228 C 427.67507002801096 228 452.324929971989 228 501.62464985994507 228 C 550.9243697479011 228 575.5742296918792 211.13778129553242 624.8739495798352 211.13778129553242 C 674.1736694677913 211.13778129553242 698.8235294117693 228 748.1232492997253 228 C 797.4229691876815 228 871.3725490196155 228 871.3725490196155 228 L 881.3725490196155 228" stroke-linejoin="round" visibility="visible" stroke="rgba(192,192,192,0.0001)" stroke-width="22" zIndex="2" class=" highcharts-tracker" style="cursor:pointer;"/></g><g class="highcharts-markers highcharts-tracker" visibility="visible" zIndex="0.1" transform="translate(68,60) scale(1 1)" clip-path="none" style="cursor:pointer;"><path fill="#8085e9" d="M 867 224 L 875 224 871 232 Z" stroke="#FFFFFF" stroke-width="1"/><path fill="#8085e9" d="M 744 224 L 752 224 748 232 Z" stroke="#FFFFFF" stroke-width="1"/><path fill="#8085e9" d="M 620 207.13778129553242 L 628 207.13778129553242 624 215.13778129553242 Z" stroke="#FFFFFF" stroke-width="1"/><path fill="#8085e9" d="M 497 224 L 505 224 501 232 Z" stroke="#FFFFFF" stroke-width="1"/><path fill="#8085e9" d="M 374 224 L 382 224 378 232 Z" stroke="#FFFFFF" stroke-width="1"/><path fill="#8085e9" d="M 251 204.59189071407485 L 259 204.59189071407485 255 212.59189071407485 Z" stroke="#FFFFFF" stroke-width="1"/><path fill="#8085e9" d="M 127 224 L 135 224 131 232 Z" stroke="#FFFFFF" stroke-width="1"/><path fill="#8085e9" d="M 4 224 L 12 224 8 232 Z" stroke="#FFFFFF" stroke-width="1"/></g><g class="highcharts-series" visibility="visible" zIndex="0.1" transform="translate(68,60) scale(1 1)" clip-path="url(#highcharts-1)"><path fill="none" d="M 8.627450980384463 228 C 8.627450980384463 228 82.57703081231855 228 131.8767507002746 228 C 181.17647058823067 228 205.82633053220871 228 255.12605042016474 228 C 304.42577030812083 228 329.07563025209885 228 378.3753501400549 228 C 427.67507002801096 228 452.324929971989 228 501.62464985994507 228 C 550.9243697479011 228 575.5742296918792 228 624.8739495798352 228 C 674.1736694677913 228 698.8235294117693 228 748.1232492997253 228 C 797.4229691876815 228 871.3725490196155 49.52223870480006 871.3725490196155 49.52223870480006" stroke="#f15c80" stroke-width="2" zIndex="1" stroke-linejoin="round" stroke-linecap="round"/><path fill="none" d="M -1.372549019615537 228 L 8.627450980384463 228 C 8.627450980384463 228 82.57703081231855 228 131.8767507002746 228 C 181.17647058823067 228 205.82633053220871 228 255.12605042016474 228 C 304.42577030812083 228 329.07563025209885 228 378.3753501400549 228 C 427.67507002801096 228 452.324929971989 228 501.62464985994507 228 C 550.9243697479011 228 575.5742296918792 228 624.8739495798352 228 C 674.1736694677913 228 698.8235294117693 228 748.1232492997253 228 C 797.4229691876815 228 871.3725490196155 49.52223870480006 871.3725490196155 49.52223870480006 L 881.3725490196155 49.52223870480006" stroke-linejoin="round" visibility="visible" stroke="rgba(192,192,192,0.0001)" stroke-width="22" zIndex="2" class=" highcharts-tracker" style="cursor:pointer;"/></g><g class="highcharts-markers highcharts-tracker" visibility="visible" zIndex="0.1" transform="translate(68,60) scale(1 1)" clip-path="none" style="cursor:pointer;"><path fill="#f15c80" d="M 871 45.52223870480006 C 876.328 45.52223870480006 876.328 53.52223870480006 871 53.52223870480006 C 865.672 53.52223870480006 865.672 45.52223870480006 871 45.52223870480006 Z" stroke="#FFFFFF" stroke-width="1"/><path fill="#f15c80" d="M 748 224 C 753.328 224 753.328 232 748 232 C 742.672 232 742.672 224 748 224 Z" stroke="#FFFFFF" stroke-width="1"/><path fill="#f15c80" d="M 624 224 C 629.328 224 629.328 232 624 232 C 618.672 232 618.672 224 624 224 Z" stroke="#FFFFFF" stroke-width="1"/><path fill="#f15c80" d="M 501 224 C 506.328 224 506.328 232 501 232 C 495.672 232 495.672 224 501 224 Z" stroke="#FFFFFF" stroke-width="1"/><path fill="#f15c80" d="M 378 224 C 383.328 224 383.328 232 378 232 C 372.672 232 372.672 224 378 224 Z" stroke="#FFFFFF" stroke-width="1"/><path fill="#f15c80" d="M 255 224 C 260.328 224 260.328 232 255 232 C 249.672 232 249.672 224 255 224 Z" stroke="#FFFFFF" stroke-width="1"/><path fill="#f15c80" d="M 131 224 C 136.328 224 136.328 232 131 232 C 125.672 232 125.672 224 131 224 Z" stroke="#FFFFFF" stroke-width="1"/><path fill="#f15c80" d="M 8 224 C 13.328 224 13.328 232 8 232 C 2.6719999999999997 232 2.6719999999999997 224 8 224 Z" stroke="#FFFFFF" stroke-width="1"/></g><g class="highcharts-series" visibility="visible" zIndex="0.1" transform="translate(68,60) scale(1 1)" clip-path="url(#highcharts-1)"><path fill="none" d="M 8.627450980384463 193.64869959923826 C 8.627450980384463 193.64869959923826 82.57703081231855 228 131.8767507002746 228 C 181.17647058823067 228 205.82633053220871 228 255.12605042016474 228 C 304.42577030812083 228 329.07563025209885 228 378.3753501400549 228 C 427.67507002801096 228 452.324929971989 228 501.62464985994507 228 C 550.9243697479011 228 575.5742296918792 228 624.8739495798352 228 C 674.1736694677913 228 698.8235294117693 213.34275369633312 748.1232492997253 199.0645327927172 C 797.4229691876815 184.7863118891012 871.3725490196155 156.60889548192014 871.3725490196155 156.60889548192014" stroke="#e4d354" stroke-width="2" zIndex="1" stroke-linejoin="round" stroke-linecap="round"/><path fill="none" d="M -1.372549019615537 193.64869959923826 L 8.627450980384463 193.64869959923826 C 8.627450980384463 193.64869959923826 82.57703081231855 228 131.8767507002746 228 C 181.17647058823067 228 205.82633053220871 228 255.12605042016474 228 C 304.42577030812083 228 329.07563025209885 228 378.3753501400549 228 C 427.67507002801096 228 452.324929971989 228 501.62464985994507 228 C 550.9243697479011 228 575.5742296918792 228 624.8739495798352 228 C 674.1736694677913 228 698.8235294117693 213.34275369633312 748.1232492997253 199.0645327927172 C 797.4229691876815 184.7863118891012 871.3725490196155 156.60889548192014 871.3725490196155 156.60889548192014 L 881.3725490196155 156.60889548192014" stroke-linejoin="round" visibility="visible" stroke="rgba(192,192,192,0.0001)" stroke-width="22" zIndex="2" class=" highcharts-tracker" style="cursor:pointer;"/></g><g class="highcharts-markers highcharts-tracker" visibility="visible" zIndex="0.1" transform="translate(68,60) scale(1 1)" clip-path="none" style="cursor:pointer;"><path fill="#e4d354" d="M 871 152.60889548192014 L 875 156.60889548192014 871 160.60889548192014 867 156.60889548192014 Z" stroke="#FFFFFF" stroke-width="1"/><path fill="#e4d354" d="M 748 195.0645327927172 L 752 199.0645327927172 748 203.0645327927172 744 199.0645327927172 Z" stroke="#FFFFFF" stroke-width="1"/><path fill="#e4d354" d="M 624 224 L 628 228 624 232 620 228 Z" stroke="#FFFFFF" stroke-width="1"/><path fill="#e4d354" d="M 501 224 L 505 228 501 232 497 228 Z" stroke="#FFFFFF" stroke-width="1"/><path fill="#e4d354" d="M 378 224 L 382 228 378 232 374 228 Z" stroke="#FFFFFF" stroke-width="1"/><path fill="#e4d354" d="M 255 224 L 259 228 255 232 251 228 Z" stroke="#FFFFFF" stroke-width="1"/><path fill="#e4d354" d="M 131 224 L 135 228 131 232 127 228 Z" stroke="#FFFFFF" stroke-width="1"/><path fill="#e4d354" d="M 8 189.64869959923826 L 12 193.64869959923826 8 197.64869959923826 4 193.64869959923826 Z" stroke="#FFFFFF" stroke-width="1"/></g><g class="highcharts-series" visibility="visible" zIndex="0.1" transform="translate(68,60) scale(1 1)" clip-path="url(#highcharts-1)"><path fill="none" d="M 8.627450980384463 228 C 8.627450980384463 228 82.57703081231855 228 131.8767507002746 228 C 181.17647058823067 228 205.82633053220871 228 255.12605042016474 228 C 304.42577030812083 228 329.07563025209885 222.1162825966082 378.3753501400549 214.0684482458886 C 427.67507002801096 206.020613895169 452.324929971989 187.760828246402 501.62464985994507 187.760828246402 C 550.9243697479011 187.760828246402 575.5742296918792 228 624.8739495798352 228 C 674.1736694677913 228 698.8235294117693 228 748.1232492997253 228 C 797.4229691876815 228 871.3725490196155 228 871.3725490196155 228" stroke="#8085e8" stroke-width="2" zIndex="1" stroke-linejoin="round" stroke-linecap="round"/><path fill="none" d="M -1.372549019615537 228 L 8.627450980384463 228 C 8.627450980384463 228 82.57703081231855 228 131.8767507002746 228 C 181.17647058823067 228 205.82633053220871 228 255.12605042016474 228 C 304.42577030812083 228 329.07563025209885 222.1162825966082 378.3753501400549 214.0684482458886 C 427.67507002801096 206.020613895169 452.324929971989 187.760828246402 501.62464985994507 187.760828246402 C 550.9243697479011 187.760828246402 575.5742296918792 228 624.8739495798352 228 C 674.1736694677913 228 698.8235294117693 228 748.1232492997253 228 C 797.4229691876815 228 871.3725490196155 228 871.3725490196155 228 L 881.3725490196155 228" stroke-linejoin="round" visibility="visible" stroke="rgba(192,192,192,0.0001)" stroke-width="22" zIndex="2" class=" highcharts-tracker" style="cursor:pointer;"/></g><g class="highcharts-markers highcharts-tracker" visibility="visible" zIndex="0.1" transform="translate(68,60) scale(1 1)" clip-path="none" style="cursor:pointer;"><path fill="#8085e8" d="M 867 224 L 875 224 875 232 867 232 Z" stroke="#FFFFFF" stroke-width="1"/><path fill="#8085e8" d="M 744 224 L 752 224 752 232 744 232 Z" stroke="#FFFFFF" stroke-width="1"/><path fill="#8085e8" d="M 620 224 L 628 224 628 232 620 232 Z" stroke="#FFFFFF" stroke-width="1"/><path fill="#8085e8" d="M 497 183.760828246402 L 505 183.760828246402 505 191.760828246402 497 191.760828246402 Z" stroke="#FFFFFF" stroke-width="1"/><path fill="#8085e8" d="M 374 210.0684482458886 L 382 210.0684482458886 382 218.0684482458886 374 218.0684482458886 Z" stroke="#FFFFFF" stroke-width="1"/><path fill="#8085e8" d="M 251 224 L 259 224 259 232 251 232 Z" stroke="#FFFFFF" stroke-width="1"/><path fill="#8085e8" d="M 127 224 L 135 224 135 232 127 232 Z" stroke="#FFFFFF" stroke-width="1"/><path fill="#8085e8" d="M 4 224 L 12 224 12 232 4 232 Z" stroke="#FFFFFF" stroke-width="1"/></g><g class="highcharts-series" visibility="visible" zIndex="0.1" transform="translate(68,60) scale(1 1)" clip-path="url(#highcharts-1)"><path fill="none" d="M 8.627450980384463 228 C 8.627450980384463 228 82.57703081231855 228 131.8767507002746 228 C 181.17647058823067 228 205.82633053220871 228 255.12605042016474 228 C 304.42577030812083 228 329.07563025209885 228 378.3753501400549 228 C 427.67507002801096 228 452.324929971989 228 501.62464985994507 228 C 550.9243697479011 228 575.5742296918792 228 624.8739495798352 228 C 674.1736694677913 228 698.8235294117693 206.32701494220143 748.1232492997253 182.52998010284148 C 797.4229691876815 158.7329452634815 871.3725490196155 109.01482580320015 871.3725490196155 109.01482580320015" stroke="#8d4653" stroke-width="2" zIndex="1" stroke-linejoin="round" stroke-linecap="round"/><path fill="none" d="M -1.372549019615537 228 L 8.627450980384463 228 C 8.627450980384463 228 82.57703081231855 228 131.8767507002746 228 C 181.17647058823067 228 205.82633053220871 228 255.12605042016474 228 C 304.42577030812083 228 329.07563025209885 228 378.3753501400549 228 C 427.67507002801096 228 452.324929971989 228 501.62464985994507 228 C 550.9243697479011 228 575.5742296918792 228 624.8739495798352 228 C 674.1736694677913 228 698.8235294117693 206.32701494220143 748.1232492997253 182.52998010284148 C 797.4229691876815 158.7329452634815 871.3725490196155 109.01482580320015 871.3725490196155 109.01482580320015 L 881.3725490196155 109.01482580320015" stroke-linejoin="round" visibility="visible" stroke="rgba(192,192,192,0.0001)" stroke-width="22" zIndex="2" class=" highcharts-tracker" style="cursor:pointer;"/></g><g class="highcharts-markers highcharts-tracker" visibility="visible" zIndex="0.1" transform="translate(68,60) scale(1 1)" clip-path="none" style="cursor:pointer;"><path fill="#8d4653" d="M 871 105.01482580320015 L 875 113.01482580320015 867 113.01482580320015 Z" stroke="#FFFFFF" stroke-width="1"/><path fill="#8d4653" d="M 748 178.52998010284148 L 752 186.52998010284148 744 186.52998010284148 Z" stroke="#FFFFFF" stroke-width="1"/><path fill="#8d4653" d="M 624 224 L 628 232 620 232 Z" stroke="#FFFFFF" stroke-width="1"/><path fill="#8d4653" d="M 501 224 L 505 232 497 232 Z" stroke="#FFFFFF" stroke-width="1"/><path fill="#8d4653" d="M 378 224 L 382 232 374 232 Z" stroke="#FFFFFF" stroke-width="1"/><path fill="#8d4653" d="M 255 224 L 259 232 251 232 Z" stroke="#FFFFFF" stroke-width="1"/><path fill="#8d4653" d="M 131 224 L 135 232 127 232 Z" stroke="#FFFFFF" stroke-width="1"/><path fill="#8d4653" d="M 8 224 L 12 232 4 232 Z" stroke="#FFFFFF" stroke-width="1"/></g><g class="highcharts-series" visibility="visible" zIndex="0.1" transform="translate(68,60) scale(1 1)" clip-path="url(#highcharts-1)"><path fill="none" d="M 8.627450980384463 228 C 8.627450980384463 228 82.57703081231855 188.2798343738778 131.8767507002746 188.2798343738778 C 181.17647058823067 188.2798343738778 205.82633053220871 188.2798343738778 255.12605042016474 194.72895550984242 C 304.42577030812083 201.17807664580704 329.07563025209885 228 378.3753501400549 228 C 427.67507002801096 228 452.324929971989 228 501.62464985994507 228 C 550.9243697479011 228 575.5742296918792 228 624.8739495798352 228 C 674.1736694677913 228 698.8235294117693 196.80820100645744 748.1232492997253 182.52998010284148 C 797.4229691876815 168.2517591992255 871.3725490196155 156.60889548192014 871.3725490196155 156.60889548192014" stroke="#91e8e1" stroke-width="2" zIndex="1" stroke-linejoin="round" stroke-linecap="round"/><path fill="none" d="M -1.372549019615537 228 L 8.627450980384463 228 C 8.627450980384463 228 82.57703081231855 188.2798343738778 131.8767507002746 188.2798343738778 C 181.17647058823067 188.2798343738778 205.82633053220871 188.2798343738778 255.12605042016474 194.72895550984242 C 304.42577030812083 201.17807664580704 329.07563025209885 228 378.3753501400549 228 C 427.67507002801096 228 452.324929971989 228 501.62464985994507 228 C 550.9243697479011 228 575.5742296918792 228 624.8739495798352 228 C 674.1736694677913 228 698.8235294117693 196.80820100645744 748.1232492997253 182.52998010284148 C 797.4229691876815 168.2517591992255 871.3725490196155 156.60889548192014 871.3725490196155 156.60889548192014 L 881.3725490196155 156.60889548192014" stroke-linejoin="round" visibility="visible" stroke="rgba(192,192,192,0.0001)" stroke-width="22" zIndex="2" class=" highcharts-tracker" style="cursor:pointer;"/></g><g class="highcharts-markers highcharts-tracker" visibility="visible" zIndex="0.1" transform="translate(68,60) scale(1 1)" clip-path="none" style="cursor:pointer;"><path fill="#91e8e1" d="M 867 152.60889548192014 L 875 152.60889548192014 871 160.60889548192014 Z" stroke="#FFFFFF" stroke-width="1"/><path fill="#91e8e1" d="M 744 178.52998010284148 L 752 178.52998010284148 748 186.52998010284148 Z" stroke="#FFFFFF" stroke-width="1"/><path fill="#91e8e1" d="M 620 224 L 628 224 624 232 Z" stroke="#FFFFFF" stroke-width="1"/><path fill="#91e8e1" d="M 497 224 L 505 224 501 232 Z" stroke="#FFFFFF" stroke-width="1"/><path fill="#91e8e1" d="M 374 224 L 382 224 378 232 Z" stroke="#FFFFFF" stroke-width="1"/><path fill="#91e8e1" d="M 251 190.72895550984242 L 259 190.72895550984242 255 198.72895550984242 Z" stroke="#FFFFFF" stroke-width="1"/><path fill="#91e8e1" d="M 127 184.2798343738778 L 135 184.2798343738778 131 192.2798343738778 Z" stroke="#FFFFFF" stroke-width="1"/><path fill="#91e8e1" d="M 4 224 L 12 224 8 232 Z" stroke="#FFFFFF" stroke-width="1"/></g><g class="highcharts-series" visibility="visible" zIndex="0.1" transform="translate(68,60) scale(1 1)" clip-path="url(#highcharts-1)"><path fill="none" d="M 8.627450980384463 228 C 8.627450980384463 228 82.57703081231855 228 131.8767507002746 228 C 181.17647058823067 228 205.82633053220871 191.9563684689961 255.12605042016474 191.9563684689961 C 304.42577030812083 191.9563684689961 329.07563025209885 228 378.3753501400549 228 C 427.67507002801096 228 452.324929971989 228 501.62464985994507 228 C 550.9243697479011 228 575.5742296918792 228 624.8739495798352 228 C 674.1736694677913 228 698.8235294117693 228 748.1232492997253 228 C 797.4229691876815 228 871.3725490196155 228 871.3725490196155 228" stroke="#7cb5ec" stroke-width="2" zIndex="1" stroke-linejoin="round" stroke-linecap="round"/><path fill="none" d="M -1.372549019615537 228 L 8.627450980384463 228 C 8.627450980384463 228 82.57703081231855 228 131.8767507002746 228 C 181.17647058823067 228 205.82633053220871 191.9563684689961 255.12605042016474 191.9563684689961 C 304.42577030812083 191.9563684689961 329.07563025209885 228 378.3753501400549 228 C 427.67507002801096 228 452.324929971989 228 501.62464985994507 228 C 550.9243697479011 228 575.5742296918792 228 624.8739495798352 228 C 674.1736694677913 228 698.8235294117693 228 748.1232492997253 228 C 797.4229691876815 228 871.3725490196155 228 871.3725490196155 228 L 881.3725490196155 228" stroke-linejoin="round" visibility="visible" stroke="rgba(192,192,192,0.0001)" stroke-width="22" zIndex="2" class=" highcharts-tracker" style="cursor:pointer;"/></g><g class="highcharts-markers highcharts-tracker" visibility="visible" zIndex="0.1" transform="translate(68,60) scale(1 1)" clip-path="none" style="cursor:pointer;"><path fill="#7cb5ec" d="M 871 224 C 876.328 224 876.328 232 871 232 C 865.672 232 865.672 224 871 224 Z" stroke="#FFFFFF" stroke-width="1"/><path fill="#7cb5ec" d="M 748 224 C 753.328 224 753.328 232 748 232 C 742.672 232 742.672 224 748 224 Z" stroke="#FFFFFF" stroke-width="1"/><path fill="#7cb5ec" d="M 624 224 C 629.328 224 629.328 232 624 232 C 618.672 232 618.672 224 624 224 Z" stroke="#FFFFFF" stroke-width="1"/><path fill="#7cb5ec" d="M 501 224 C 506.328 224 506.328 232 501 232 C 495.672 232 495.672 224 501 224 Z" stroke="#FFFFFF" stroke-width="1"/><path fill="#7cb5ec" d="M 378 224 C 383.328 224 383.328 232 378 232 C 372.672 232 372.672 224 378 224 Z" stroke="#FFFFFF" stroke-width="1"/><path fill="#7cb5ec" d="M 255 187.9563684689961 C 260.328 187.9563684689961 260.328 195.9563684689961 255 195.9563684689961 C 249.672 195.9563684689961 249.672 187.9563684689961 255 187.9563684689961 Z" stroke="#FFFFFF" stroke-width="1"/><path fill="#7cb5ec" d="M 131 224 C 136.328 224 136.328 232 131 232 C 125.672 232 125.672 224 131 224 Z" stroke="#FFFFFF" stroke-width="1"/><path fill="#7cb5ec" d="M 8 224 C 13.328 224 13.328 232 8 232 C 2.6719999999999997 232 2.6719999999999997 224 8 224 Z" stroke="#FFFFFF" stroke-width="1"/></g><g class="highcharts-series" visibility="visible" zIndex="0.1" transform="translate(68,60) scale(1 1)" clip-path="url(#highcharts-1)"><path fill="none" d="M 8.627450980384463 228 C 8.627450980384463 228 82.57703081231855 228 131.8767507002746 228 C 181.17647058823067 228 205.82633053220871 228 255.12605042016474 228 C 304.42577030812083 228 329.07563025209885 214.0684482458886 378.3753501400549 214.0684482458886 C 427.67507002801096 214.0684482458886 452.324929971989 228 501.62464985994507 228 C 550.9243697479011 228 575.5742296918792 214.3136254276709 624.8739495798352 204.3928938137454 C 674.1736694677913 194.47216219981988 698.8235294117693 204.3928938137454 748.1232492997253 178.3963419303724 C 797.4229691876815 152.39979004699939 871.3725490196155 13.826686445760174 871.3725490196155 13.826686445760174" stroke="#434348" stroke-width="2" zIndex="1" stroke-linejoin="round" stroke-linecap="round"/><path fill="none" d="M -1.372549019615537 228 L 8.627450980384463 228 C 8.627450980384463 228 82.57703081231855 228 131.8767507002746 228 C 181.17647058823067 228 205.82633053220871 228 255.12605042016474 228 C 304.42577030812083 228 329.07563025209885 214.0684482458886 378.3753501400549 214.0684482458886 C 427.67507002801096 214.0684482458886 452.324929971989 228 501.62464985994507 228 C 550.9243697479011 228 575.5742296918792 214.3136254276709 624.8739495798352 204.3928938137454 C 674.1736694677913 194.47216219981988 698.8235294117693 204.3928938137454 748.1232492997253 178.3963419303724 C 797.4229691876815 152.39979004699939 871.3725490196155 13.826686445760174 871.3725490196155 13.826686445760174 L 881.3725490196155 13.826686445760174" stroke-linejoin="round" visibility="visible" stroke="rgba(192,192,192,0.0001)" stroke-width="22" zIndex="2" class=" highcharts-tracker" style="cursor:pointer;"/></g><g class="highcharts-markers highcharts-tracker" visibility="visible" zIndex="0.1" transform="translate(68,60) scale(1 1)" clip-path="none" style="cursor:pointer;"><path fill="#434348" d="M 871 9.826686445760174 L 875 13.826686445760174 871 17.826686445760174 867 13.826686445760174 Z" stroke="#FFFFFF" stroke-width="1"/><path fill="#434348" d="M 748 174.3963419303724 L 752 178.3963419303724 748 182.3963419303724 744 178.3963419303724 Z" stroke="#FFFFFF" stroke-width="1"/><path fill="#434348" d="M 624 200.3928938137454 L 628 204.3928938137454 624 208.3928938137454 620 204.3928938137454 Z" stroke="#FFFFFF" stroke-width="1"/><path fill="#434348" d="M 501 224 L 505 228 501 232 497 228 Z" stroke="#FFFFFF" stroke-width="1"/><path fill="#434348" d="M 378 210.0684482458886 L 382 214.0684482458886 378 218.0684482458886 374 214.0684482458886 Z" stroke="#FFFFFF" stroke-width="1"/><path fill="#434348" d="M 255 224 L 259 228 255 232 251 228 Z" stroke="#FFFFFF" stroke-width="1"/><path fill="#434348" d="M 131 224 L 135 228 131 232 127 228 Z" stroke="#FFFFFF" stroke-width="1"/><path fill="#434348" d="M 8 224 L 12 228 8 232 4 228 Z" stroke="#FFFFFF" stroke-width="1"/></g><g class="highcharts-series" visibility="visible" zIndex="0.1" transform="translate(68,60) scale(1 1)" clip-path="url(#highcharts-1)"><path fill="none" d="M 8.627450980384463 228 C 8.627450980384463 228 82.57703081231855 228 131.8767507002746 228 C 181.17647058823067 228 205.82633053220871 228 255.12605042016474 228 C 304.42577030812083 228 329.07563025209885 228 378.3753501400549 228 C 427.67507002801096 228 452.324929971989 228 501.62464985994507 228 C 550.9243697479011 228 575.5742296918792 228 624.8739495798352 228 C 674.1736694677913 228 698.8235294117693 226.36943700914318 748.1232492997253 207.33180913765523 C 797.4229691876815 188.29418126616721 871.3725490196155 132.81186064256002 871.3725490196155 132.81186064256002" stroke="#90ed7d" stroke-width="2" zIndex="1" stroke-linejoin="round" stroke-linecap="round"/><path fill="none" d="M -1.372549019615537 228 L 8.627450980384463 228 C 8.627450980384463 228 82.57703081231855 228 131.8767507002746 228 C 181.17647058823067 228 205.82633053220871 228 255.12605042016474 228 C 304.42577030812083 228 329.07563025209885 228 378.3753501400549 228 C 427.67507002801096 228 452.324929971989 228 501.62464985994507 228 C 550.9243697479011 228 575.5742296918792 228 624.8739495798352 228 C 674.1736694677913 228 698.8235294117693 226.36943700914318 748.1232492997253 207.33180913765523 C 797.4229691876815 188.29418126616721 871.3725490196155 132.81186064256002 871.3725490196155 132.81186064256002 L 881.3725490196155 132.81186064256002" stroke-linejoin="round" visibility="visible" stroke="rgba(192,192,192,0.0001)" stroke-width="22" zIndex="2" class=" highcharts-tracker" style="cursor:pointer;"/></g><g class="highcharts-markers highcharts-tracker" visibility="visible" zIndex="0.1" transform="translate(68,60) scale(1 1)" clip-path="none" style="cursor:pointer;"><path fill="#90ed7d" d="M 867 128.81186064256002 L 875 128.81186064256002 875 136.81186064256002 867 136.81186064256002 Z" stroke="#FFFFFF" stroke-width="1"/><path fill="#90ed7d" d="M 744 203.33180913765523 L 752 203.33180913765523 752 211.33180913765523 744 211.33180913765523 Z" stroke="#FFFFFF" stroke-width="1"/><path fill="#90ed7d" d="M 620 224 L 628 224 628 232 620 232 Z" stroke="#FFFFFF" stroke-width="1"/><path fill="#90ed7d" d="M 497 224 L 505 224 505 232 497 232 Z" stroke="#FFFFFF" stroke-width="1"/><path fill="#90ed7d" d="M 374 224 L 382 224 382 232 374 232 Z" stroke="#FFFFFF" stroke-width="1"/><path fill="#90ed7d" d="M 251 224 L 259 224 259 232 251 232 Z" stroke="#FFFFFF" stroke-width="1"/><path fill="#90ed7d" d="M 127 224 L 135 224 135 232 127 232 Z" stroke="#FFFFFF" stroke-width="1"/><path fill="#90ed7d" d="M 4 224 L 12 224 12 232 4 232 Z" stroke="#FFFFFF" stroke-width="1"/></g><g class="highcharts-series" visibility="visible" zIndex="0.1" transform="translate(68,60) scale(1 1)" clip-path="url(#highcharts-1)"><path fill="none" d="M 8.627450980384463 228 C 8.627450980384463 228 82.57703081231855 228 131.8767507002746 228 C 181.17647058823067 228 205.82633053220871 228 255.12605042016474 228 C 304.42577030812083 228 329.07563025209885 214.0684482458886 378.3753501400549 214.0684482458886 C 427.67507002801096 214.0684482458886 452.324929971989 228 501.62464985994507 228 C 550.9243697479011 228 575.5742296918792 228 624.8739495798352 228 C 674.1736694677913 228 698.8235294117693 190.7972564477795 748.1232492997253 190.7972564477795 C 797.4229691876815 190.7972564477795 871.3725490196155 228 871.3725490196155 228" stroke="#f7a35c" stroke-width="2" zIndex="1" stroke-linejoin="round" stroke-linecap="round"/><path fill="none" d="M -1.372549019615537 228 L 8.627450980384463 228 C 8.627450980384463 228 82.57703081231855 228 131.8767507002746 228 C 181.17647058823067 228 205.82633053220871 228 255.12605042016474 228 C 304.42577030812083 228 329.07563025209885 214.0684482458886 378.3753501400549 214.0684482458886 C 427.67507002801096 214.0684482458886 452.324929971989 228 501.62464985994507 228 C 550.9243697479011 228 575.5742296918792 228 624.8739495798352 228 C 674.1736694677913 228 698.8235294117693 190.7972564477795 748.1232492997253 190.7972564477795 C 797.4229691876815 190.7972564477795 871.3725490196155 228 871.3725490196155 228 L 881.3725490196155 228" stroke-linejoin="round" visibility="visible" stroke="rgba(192,192,192,0.0001)" stroke-width="22" zIndex="2" class=" highcharts-tracker" style="cursor:pointer;"/></g><g class="highcharts-markers highcharts-tracker" visibility="visible" zIndex="0.1" transform="translate(68,60) scale(1 1)" clip-path="none" style="cursor:pointer;"><path fill="#f7a35c" d="M 871 224 L 875 232 867 232 Z" stroke="#FFFFFF" stroke-width="1"/><path fill="#f7a35c" d="M 748 186.7972564477795 L 752 194.7972564477795 744 194.7972564477795 Z" stroke="#FFFFFF" stroke-width="1"/><path fill="#f7a35c" d="M 624 224 L 628 232 620 232 Z" stroke="#FFFFFF" stroke-width="1"/><path fill="#f7a35c" d="M 501 224 L 505 232 497 232 Z" stroke="#FFFFFF" stroke-width="1"/><path fill="#f7a35c" d="M 378 210.0684482458886 L 382 218.0684482458886 374 218.0684482458886 Z" stroke="#FFFFFF" stroke-width="1"/><path fill="#f7a35c" d="M 255 224 L 259 232 251 232 Z" stroke="#FFFFFF" stroke-width="1"/><path fill="#f7a35c" d="M 131 224 L 135 232 127 232 Z" stroke="#FFFFFF" stroke-width="1"/><path fill="#f7a35c" d="M 8 224 L 12 232 4 232 Z" stroke="#FFFFFF" stroke-width="1"/></g><g class="highcharts-series" visibility="visible" zIndex="0.1" transform="translate(68,60) scale(1 1)" clip-path="url(#highcharts-1)"><path fill="none" d="M 8.627450980384463 228 C 8.627450980384463 228 82.57703081231855 228 131.8767507002746 228 C 181.17647058823067 228 205.82633053220871 228 255.12605042016474 228 C 304.42577030812083 228 329.07563025209885 219.09834471508833 378.3753501400549 214.0684482458886 C 427.67507002801096 209.03855177668882 452.324929971989 202.8505176540012 501.62464985994507 202.8505176540012 C 550.9243697479011 202.8505176540012 575.5742296918792 204.3928938137454 624.8739495798352 204.3928938137454 C 674.1736694677913 204.3928938137454 698.8235294117693 204.3928938137454 748.1232492997253 194.93089462024835 C 797.4229691876815 185.46889542675132 871.3725490196155 49.52223870480006 871.3725490196155 49.52223870480006" stroke="#8085e9" stroke-width="2" zIndex="1" stroke-linejoin="round" stroke-linecap="round"/><path fill="none" d="M -1.372549019615537 228 L 8.627450980384463 228 C 8.627450980384463 228 82.57703081231855 228 131.8767507002746 228 C 181.17647058823067 228 205.82633053220871 228 255.12605042016474 228 C 304.42577030812083 228 329.07563025209885 219.09834471508833 378.3753501400549 214.0684482458886 C 427.67507002801096 209.03855177668882 452.324929971989 202.8505176540012 501.62464985994507 202.8505176540012 C 550.9243697479011 202.8505176540012 575.5742296918792 204.3928938137454 624.8739495798352 204.3928938137454 C 674.1736694677913 204.3928938137454 698.8235294117693 204.3928938137454 748.1232492997253 194.93089462024835 C 797.4229691876815 185.46889542675132 871.3725490196155 49.52223870480006 871.3725490196155 49.52223870480006 L 881.3725490196155 49.52223870480006" stroke-linejoin="round" visibility="visible" stroke="rgba(192,192,192,0.0001)" stroke-width="22" zIndex="2" class=" highcharts-tracker" style="cursor:pointer;"/></g><g class="highcharts-markers highcharts-tracker" visibility="visible" zIndex="0.1" transform="translate(68,60) scale(1 1)" clip-path="none" style="cursor:pointer;"><path fill="#8085e9" d="M 867 45.52223870480006 L 875 45.52223870480006 871 53.52223870480006 Z" stroke="#FFFFFF" stroke-width="1"/><path fill="#8085e9" d="M 744 190.93089462024835 L 752 190.93089462024835 748 198.93089462024835 Z" stroke="#FFFFFF" stroke-width="1"/><path fill="#8085e9" d="M 620 200.3928938137454 L 628 200.3928938137454 624 208.3928938137454 Z" stroke="#FFFFFF" stroke-width="1"/><path fill="#8085e9" d="M 497 198.8505176540012 L 505 198.8505176540012 501 206.8505176540012 Z" stroke="#FFFFFF" stroke-width="1"/><path fill="#8085e9" d="M 374 210.0684482458886 L 382 210.0684482458886 378 218.0684482458886 Z" stroke="#FFFFFF" stroke-width="1"/><path fill="#8085e9" d="M 251 224 L 259 224 255 232 Z" stroke="#FFFFFF" stroke-width="1"/><path fill="#8085e9" d="M 127 224 L 135 224 131 232 Z" stroke="#FFFFFF" stroke-width="1"/><path fill="#8085e9" d="M 4 224 L 12 224 8 232 Z" stroke="#FFFFFF" stroke-width="1"/></g><g class="highcharts-series" visibility="visible" zIndex="0.1" transform="translate(68,60) scale(1 1)" clip-path="url(#highcharts-1)"><path fill="none" d="M 8.627450980384463 198.55602822791857 C 8.627450980384463 198.55602822791857 82.57703081231855 211.44993098911573 131.8767507002746 211.44993098911573 C 181.17647058823067 211.44993098911573 205.82633053220871 203.04671663238193 255.12605042016474 203.04671663238193 C 304.42577030812083 203.04671663238193 329.07563025209885 228 378.3753501400549 228 C 427.67507002801096 228 452.324929971989 228 501.62464985994507 228 C 550.9243697479011 228 575.5742296918792 228 624.8739495798352 228 C 674.1736694677913 228 698.8235294117693 226.9952058045462 748.1232492997253 203.19817096518625 C 797.4229691876815 179.40113612582627 871.3725490196155 109.01482580320015 871.3725490196155 109.01482580320015" stroke="#f15c80" stroke-width="2" zIndex="1" stroke-linejoin="round" stroke-linecap="round"/><path fill="none" d="M -1.372549019615537 198.55602822791857 L 8.627450980384463 198.55602822791857 C 8.627450980384463 198.55602822791857 82.57703081231855 211.44993098911573 131.8767507002746 211.44993098911573 C 181.17647058823067 211.44993098911573 205.82633053220871 203.04671663238193 255.12605042016474 203.04671663238193 C 304.42577030812083 203.04671663238193 329.07563025209885 228 378.3753501400549 228 C 427.67507002801096 228 452.324929971989 228 501.62464985994507 228 C 550.9243697479011 228 575.5742296918792 228 624.8739495798352 228 C 674.1736694677913 228 698.8235294117693 226.9952058045462 748.1232492997253 203.19817096518625 C 797.4229691876815 179.40113612582627 871.3725490196155 109.01482580320015 871.3725490196155 109.01482580320015 L 881.3725490196155 109.01482580320015" stroke-linejoin="round" visibility="visible" stroke="rgba(192,192,192,0.0001)" stroke-width="22" zIndex="2" class=" highcharts-tracker" style="cursor:pointer;"/></g><g class="highcharts-markers highcharts-tracker" visibility="visible" zIndex="0.1" transform="translate(68,60) scale(1 1)" clip-path="none" style="cursor:pointer;"><path fill="#f15c80" d="M 871 105.01482580320015 C 876.328 105.01482580320015 876.328 113.01482580320015 871 113.01482580320015 C 865.672 113.01482580320015 865.672 105.01482580320015 871 105.01482580320015 Z" stroke="#FFFFFF" stroke-width="1"/><path fill="#f15c80" d="M 748 199.19817096518625 C 753.328 199.19817096518625 753.328 207.19817096518625 748 207.19817096518625 C 742.672 207.19817096518625 742.672 199.19817096518625 748 199.19817096518625 Z" stroke="#FFFFFF" stroke-width="1"/><path fill="#f15c80" d="M 624 224 C 629.328 224 629.328 232 624 232 C 618.672 232 618.672 224 624 224 Z" stroke="#FFFFFF" stroke-width="1"/><path fill="#f15c80" d="M 501 224 C 506.328 224 506.328 232 501 232 C 495.672 232 495.672 224 501 224 Z" stroke="#FFFFFF" stroke-width="1"/><path fill="#f15c80" d="M 378 224 C 383.328 224 383.328 232 378 232 C 372.672 232 372.672 224 378 224 Z" stroke="#FFFFFF" stroke-width="1"/><path fill="#f15c80" d="M 255 199.04671663238193 C 260.328 199.04671663238193 260.328 207.04671663238193 255 207.04671663238193 C 249.672 207.04671663238193 249.672 199.04671663238193 255 199.04671663238193 Z" stroke="#FFFFFF" stroke-width="1"/><path fill="#f15c80" d="M 131 207.44993098911573 C 136.328 207.44993098911573 136.328 215.44993098911573 131 215.44993098911573 C 125.672 215.44993098911573 125.672 207.44993098911573 131 207.44993098911573 Z" stroke="#FFFFFF" stroke-width="1"/><path fill="#f15c80" d="M 8 194.55602822791857 C 13.328 194.55602822791857 13.328 202.55602822791857 8 202.55602822791857 C 2.6719999999999997 202.55602822791857 2.6719999999999997 194.55602822791857 8 194.55602822791857 Z" stroke="#FFFFFF" stroke-width="1"/></g><g class="highcharts-series" visibility="visible" zIndex="0.1" transform="translate(68,60) scale(1 1)" clip-path="url(#highcharts-1)"><path fill="none" d="M 8.627450980384463 188.74137097055794 C 8.627450980384463 188.74137097055794 82.57703081231855 200.30528202788938 131.8767507002746 204.82990338476205 C 181.17647058823067 209.35452474163472 205.82633053220871 211.36447775492127 255.12605042016474 211.36447775492127 C 304.42577030812083 211.36447775492127 329.07563025209885 194.71836428403182 378.3753501400549 188.99165508848802 C 427.67507002801096 183.26494589294418 452.324929971989 182.7309317772022 501.62464985994507 182.7309317772022 C 550.9243697479011 182.7309317772022 575.5742296918792 201.02045007285187 624.8739495798352 201.02045007285187 C 674.1736694677913 201.02045007285187 698.8235294117693 199.0645327927172 748.1232492997253 199.0645327927172 C 797.4229691876815 199.0645327927172 871.3725490196155 228 871.3725490196155 228" stroke="#e4d354" stroke-width="2" zIndex="1" stroke-linejoin="round" stroke-linecap="round"/><path fill="none" d="M -1.372549019615537 188.74137097055794 L 8.627450980384463 188.74137097055794 C 8.627450980384463 188.74137097055794 82.57703081231855 200.30528202788938 131.8767507002746 204.82990338476205 C 181.17647058823067 209.35452474163472 205.82633053220871 211.36447775492127 255.12605042016474 211.36447775492127 C 304.42577030812083 211.36447775492127 329.07563025209885 194.71836428403182 378.3753501400549 188.99165508848802 C 427.67507002801096 183.26494589294418 452.324929971989 182.7309317772022 501.62464985994507 182.7309317772022 C 550.9243697479011 182.7309317772022 575.5742296918792 201.02045007285187 624.8739495798352 201.02045007285187 C 674.1736694677913 201.02045007285187 698.8235294117693 199.0645327927172 748.1232492997253 199.0645327927172 C 797.4229691876815 199.0645327927172 871.3725490196155 228 871.3725490196155 228 L 881.3725490196155 228" stroke-linejoin="round" visibility="visible" stroke="rgba(192,192,192,0.0001)" stroke-width="22" zIndex="2" class=" highcharts-tracker" style="cursor:pointer;"/></g><g class="highcharts-markers highcharts-tracker" visibility="visible" zIndex="0.1" transform="translate(68,60) scale(1 1)" clip-path="none" style="cursor:pointer;"><path fill="#e4d354" d="M 871 224 L 875 228 871 232 867 228 Z" stroke="#FFFFFF" stroke-width="1"/><path fill="#e4d354" d="M 748 195.0645327927172 L 752 199.0645327927172 748 203.0645327927172 744 199.0645327927172 Z" stroke="#FFFFFF" stroke-width="1"/><path fill="#e4d354" d="M 624 197.02045007285187 L 628 201.02045007285187 624 205.02045007285187 620 201.02045007285187 Z" stroke="#FFFFFF" stroke-width="1"/><path fill="#e4d354" d="M 501 178.7309317772022 L 505 182.7309317772022 501 186.7309317772022 497 182.7309317772022 Z" stroke="#FFFFFF" stroke-width="1"/><path fill="#e4d354" d="M 378 184.99165508848802 L 382 188.99165508848802 378 192.99165508848802 374 188.99165508848802 Z" stroke="#FFFFFF" stroke-width="1"/><path fill="#e4d354" d="M 255 207.36447775492127 L 259 211.36447775492127 255 215.36447775492127 251 211.36447775492127 Z" stroke="#FFFFFF" stroke-width="1"/><path fill="#e4d354" d="M 131 200.82990338476205 L 135 204.82990338476205 131 208.82990338476205 127 204.82990338476205 Z" stroke="#FFFFFF" stroke-width="1"/><path fill="#e4d354" d="M 8 184.74137097055794 L 12 188.74137097055794 8 192.74137097055794 4 188.74137097055794 Z" stroke="#FFFFFF" stroke-width="1"/></g><g class="highcharts-series" visibility="visible" zIndex="0.1" transform="translate(68,60) scale(1 1)" clip-path="url(#highcharts-1)"><path fill="none" d="M 8.627450980384463 228 C 8.627450980384463 228 82.57703081231855 228 131.8767507002746 228 C 181.17647058823067 228 205.82633053220871 228 255.12605042016474 228 C 304.42577030812083 228 329.07563025209885 228 378.3753501400549 228 C 427.67507002801096 228 452.324929971989 228 501.62464985994507 228 C 550.9243697479011 228 575.5742296918792 228 624.8739495798352 228 C 674.1736694677913 228 698.8235294117693 228 748.1232492997253 207.33180913765523 C 797.4229691876815 186.66361827531045 871.3725490196155 49.52223870480006 871.3725490196155 49.52223870480006" stroke="#8085e8" stroke-width="2" zIndex="1" stroke-linejoin="round" stroke-linecap="round"/><path fill="none" d="M -1.372549019615537 228 L 8.627450980384463 228 C 8.627450980384463 228 82.57703081231855 228 131.8767507002746 228 C 181.17647058823067 228 205.82633053220871 228 255.12605042016474 228 C 304.42577030812083 228 329.07563025209885 228 378.3753501400549 228 C 427.67507002801096 228 452.324929971989 228 501.62464985994507 228 C 550.9243697479011 228 575.5742296918792 228 624.8739495798352 228 C 674.1736694677913 228 698.8235294117693 228 748.1232492997253 207.33180913765523 C 797.4229691876815 186.66361827531045 871.3725490196155 49.52223870480006 871.3725490196155 49.52223870480006 L 881.3725490196155 49.52223870480006" stroke-linejoin="round" visibility="visible" stroke="rgba(192,192,192,0.0001)" stroke-width="22" zIndex="2" class=" highcharts-tracker" style="cursor:pointer;"/></g><g class="highcharts-markers highcharts-tracker" visibility="visible" zIndex="0.1" transform="translate(68,60) scale(1 1)" clip-path="none" style="cursor:pointer;"><path fill="#8085e8" d="M 867 45.52223870480006 L 875 45.52223870480006 875 53.52223870480006 867 53.52223870480006 Z" stroke="#FFFFFF" stroke-width="1"/><path fill="#8085e8" d="M 744 203.33180913765523 L 752 203.33180913765523 752 211.33180913765523 744 211.33180913765523 Z" stroke="#FFFFFF" stroke-width="1"/><path fill="#8085e8" d="M 620 224 L 628 224 628 232 620 232 Z" stroke="#FFFFFF" stroke-width="1"/><path fill="#8085e8" d="M 497 224 L 505 224 505 232 497 232 Z" stroke="#FFFFFF" stroke-width="1"/><path fill="#8085e8" d="M 374 224 L 382 224 382 232 374 232 Z" stroke="#FFFFFF" stroke-width="1"/><path fill="#8085e8" d="M 251 224 L 259 224 259 232 251 232 Z" stroke="#FFFFFF" stroke-width="1"/><path fill="#8085e8" d="M 127 224 L 135 224 135 232 127 232 Z" stroke="#FFFFFF" stroke-width="1"/><path fill="#8085e8" d="M 4 224 L 12 224 12 232 4 232 Z" stroke="#FFFFFF" stroke-width="1"/></g><g class="highcharts-series" visibility="visible" zIndex="0.1" transform="translate(68,60) scale(1 1)" clip-path="url(#highcharts-1)"><path fill="none" d="M 8.627450980384463 203.46335685659875 C 8.627450980384463 203.46335685659875 82.57703081231855 228 131.8767507002746 228 C 181.17647058823067 228 205.82633053220871 228 255.12605042016474 228 C 304.42577030812083 228 329.07563025209885 228 378.3753501400549 228 C 427.67507002801096 228 452.324929971989 228 501.62464985994507 228 C 550.9243697479011 228 575.5742296918792 228 624.8739495798352 228 C 674.1736694677913 228 698.8235294117693 228 748.1232492997253 228 C 797.4229691876815 228 871.3725490196155 132.81186064256002 871.3725490196155 132.81186064256002" stroke="#8d4653" stroke-width="2" zIndex="1" stroke-linejoin="round" stroke-linecap="round"/><path fill="none" d="M -1.372549019615537 203.46335685659875 L 8.627450980384463 203.46335685659875 C 8.627450980384463 203.46335685659875 82.57703081231855 228 131.8767507002746 228 C 181.17647058823067 228 205.82633053220871 228 255.12605042016474 228 C 304.42577030812083 228 329.07563025209885 228 378.3753501400549 228 C 427.67507002801096 228 452.324929971989 228 501.62464985994507 228 C 550.9243697479011 228 575.5742296918792 228 624.8739495798352 228 C 674.1736694677913 228 698.8235294117693 228 748.1232492997253 228 C 797.4229691876815 228 871.3725490196155 132.81186064256002 871.3725490196155 132.81186064256002 L 881.3725490196155 132.81186064256002" stroke-linejoin="round" visibility="visible" stroke="rgba(192,192,192,0.0001)" stroke-width="22" zIndex="2" class=" highcharts-tracker" style="cursor:pointer;"/></g><g class="highcharts-markers highcharts-tracker" visibility="visible" zIndex="0.1" transform="translate(68,60) scale(1 1)" clip-path="none" style="cursor:pointer;"><path fill="#8d4653" d="M 871 128.81186064256002 L 875 136.81186064256002 867 136.81186064256002 Z" stroke="#FFFFFF" stroke-width="1"/><path fill="#8d4653" d="M 748 224 L 752 232 744 232 Z" stroke="#FFFFFF" stroke-width="1"/><path fill="#8d4653" d="M 624 224 L 628 232 620 232 Z" stroke="#FFFFFF" stroke-width="1"/><path fill="#8d4653" d="M 501 224 L 505 232 497 232 Z" stroke="#FFFFFF" stroke-width="1"/><path fill="#8d4653" d="M 378 224 L 382 232 374 232 Z" stroke="#FFFFFF" stroke-width="1"/><path fill="#8d4653" d="M 255 224 L 259 232 251 232 Z" stroke="#FFFFFF" stroke-width="1"/><path fill="#8d4653" d="M 131 224 L 135 232 127 232 Z" stroke="#FFFFFF" stroke-width="1"/><path fill="#8d4653" d="M 8 199.46335685659875 L 12 207.46335685659875 4 207.46335685659875 Z" stroke="#FFFFFF" stroke-width="1"/></g><g class="highcharts-series" visibility="visible" zIndex="0.1" transform="translate(68,60) scale(1 1)" clip-path="url(#highcharts-1)"><path fill="none" d="M 8.627450980384463 228 C 8.627450980384463 228 82.57703081231855 228 131.8767507002746 228 C 181.17647058823067 228 205.82633053220871 228 255.12605042016474 228 C 304.42577030812083 228 329.07563025209885 228 378.3753501400549 228 C 427.67507002801096 228 452.324929971989 228 501.62464985994507 228 C 550.9243697479011 228 575.5742296918792 228 624.8739495798352 228 C 674.1736694677913 228 698.8235294117693 219.8560953527382 748.1232492997253 203.19817096518625 C 797.4229691876815 186.54024657763426 871.3725490196155 144.71037806224007 871.3725490196155 144.71037806224007" stroke="#91e8e1" stroke-width="2" zIndex="1" stroke-linejoin="round" stroke-linecap="round"/><path fill="none" d="M -1.372549019615537 228 L 8.627450980384463 228 C 8.627450980384463 228 82.57703081231855 228 131.8767507002746 228 C 181.17647058823067 228 205.82633053220871 228 255.12605042016474 228 C 304.42577030812083 228 329.07563025209885 228 378.3753501400549 228 C 427.67507002801096 228 452.324929971989 228 501.62464985994507 228 C 550.9243697479011 228 575.5742296918792 228 624.8739495798352 228 C 674.1736694677913 228 698.8235294117693 219.8560953527382 748.1232492997253 203.19817096518625 C 797.4229691876815 186.54024657763426 871.3725490196155 144.71037806224007 871.3725490196155 144.71037806224007 L 881.3725490196155 144.71037806224007" stroke-linejoin="round" visibility="visible" stroke="rgba(192,192,192,0.0001)" stroke-width="22" zIndex="2" class=" highcharts-tracker" style="cursor:pointer;"/></g><g class="highcharts-markers highcharts-tracker" visibility="visible" zIndex="0.1" transform="translate(68,60) scale(1 1)" clip-path="none" style="cursor:pointer;"><path fill="#91e8e1" d="M 867 140.71037806224007 L 875 140.71037806224007 871 148.71037806224007 Z" stroke="#FFFFFF" stroke-width="1"/><path fill="#91e8e1" d="M 744 199.19817096518625 L 752 199.19817096518625 748 207.19817096518625 Z" stroke="#FFFFFF" stroke-width="1"/><path fill="#91e8e1" d="M 620 224 L 628 224 624 232 Z" stroke="#FFFFFF" stroke-width="1"/><path fill="#91e8e1" d="M 497 224 L 505 224 501 232 Z" stroke="#FFFFFF" stroke-width="1"/><path fill="#91e8e1" d="M 374 224 L 382 224 378 232 Z" stroke="#FFFFFF" stroke-width="1"/><path fill="#91e8e1" d="M 251 224 L 259 224 255 232 Z" stroke="#FFFFFF" stroke-width="1"/><path fill="#91e8e1" d="M 127 224 L 135 224 131 232 Z" stroke="#FFFFFF" stroke-width="1"/><path fill="#91e8e1" d="M 4 224 L 12 224 8 232 Z" stroke="#FFFFFF" stroke-width="1"/></g></g><text x="636" text-anchor="middle" class="highcharts-title" zIndex="4" style="color:#333333;font-size:18px;fill:#333333;width:1207px;" y="25"><tspan>DiaCollo Profile</tspan></text><text x="636" text-anchor="middle" class="highcharts-subtitle" zIndex="4" style="color:#555555;fill:#555555;width:1207px;" y="46">Populismus</text><g class="highcharts-legend" zIndex="7" transform="translate(968,58)"><g zIndex="1"><g><g class="highcharts-legend-item" zIndex="1" transform="translate(5,0)"><path fill="none" d="M 0 11 L 16 11" stroke-width="2" stroke="#7cb5ec"/><path fill="#7cb5ec" d="M 8 7 C 13.328 7 13.328 15 8 15 C 2.6719999999999997 15 2.6719999999999997 7 8 7 Z" stroke="#FFFFFF" stroke-width="1"/><text x="21" y="15" style="color:#333333;font-size:12px;font-weight:bold;cursor:pointer;fill:#333333;" text-anchor="start" zIndex="2">Partei/NN</text></g><g class="highcharts-legend-item" zIndex="1" transform="translate(5,14)"><path fill="none" d="M 0 11 L 16 11" stroke-width="2" stroke="#434348"/><path fill="#434348" d="M 8 7 L 12 11 8 15 4 11 Z" stroke="#FFFFFF" stroke-width="1"/><text x="21" y="15" style="color:#333333;font-size:12px;font-weight:bold;cursor:pointer;fill:#333333;" text-anchor="start" zIndex="2">Populismus/NN</text></g><g class="highcharts-legend-item" zIndex="1" transform="translate(5,28)"><path fill="none" d="M 0 11 L 16 11" stroke-width="2" stroke="#90ed7d"/><path fill="#90ed7d" d="M 4 7 L 12 7 12 15 4 15 Z" stroke="#FFFFFF" stroke-width="1"/><text x="21" y="15" style="color:#333333;font-size:12px;font-weight:bold;cursor:pointer;fill:#333333;" text-anchor="start" zIndex="2">Nationalismus/NN</text></g><g class="highcharts-legend-item" zIndex="1" transform="translate(5,42)"><path fill="none" d="M 0 11 L 16 11" stroke-width="2" stroke="#f7a35c"/><path fill="#f7a35c" d="M 8 7 L 12 15 4 15 Z" stroke="#FFFFFF" stroke-width="1"/><text x="21" y="15" style="color:#333333;font-size:12px;font-weight:bold;cursor:pointer;fill:#333333;" text-anchor="start" zIndex="2">Afd/NN</text></g><g class="highcharts-legend-item" zIndex="1" transform="translate(5,56)"><path fill="none" d="M 0 11 L 16 11" stroke-width="2" stroke="#8085e9"/><path fill="#8085e9" d="M 4 7 L 12 7 8 15 Z" stroke="#FFFFFF" stroke-width="1"/><text x="21" y="15" style="color:#333333;font-size:12px;font-weight:bold;cursor:pointer;fill:#333333;" text-anchor="start" zIndex="2">billig/ADJA</text></g><g class="highcharts-legend-item" zIndex="1" transform="translate(5,70)"><path fill="none" d="M 0 11 L 16 11" stroke-width="2" stroke="#f15c80"/><path fill="#f15c80" d="M 8 7 C 13.328 7 13.328 15 8 15 C 2.6719999999999997 15 2.6719999999999997 7 8 7 Z" stroke="#FFFFFF" stroke-width="1"/><text x="21" y="15" style="color:#333333;font-size:12px;font-weight:bold;cursor:pointer;fill:#333333;" text-anchor="start" zIndex="2">Zeit/NN</text></g><g class="highcharts-legend-item" zIndex="1" transform="translate(5,84)"><path fill="none" d="M 0 11 L 16 11" stroke-width="2" stroke="#e4d354"/><path fill="#e4d354" d="M 8 7 L 12 11 8 15 4 11 Z" stroke="#FFFFFF" stroke-width="1"/><text x="21" y="15" style="color:#333333;font-size:12px;font-weight:bold;cursor:pointer;fill:#333333;" text-anchor="start" zIndex="2">Politik/NN</text></g><g class="highcharts-legend-item" zIndex="1" transform="translate(5,98)"><path fill="none" d="M 0 11 L 16 11" stroke-width="2" stroke="#8085e8"/><path fill="#8085e8" d="M 4 7 L 12 7 12 15 4 15 Z" stroke="#FFFFFF" stroke-width="1"/><text x="21" y="15" style="color:#333333;font-size:12px;font-weight:bold;cursor:pointer;fill:#333333;" text-anchor="start" zIndex="2">Sozialdemokratische_Partei_Deutschlands/NE</text></g><g class="highcharts-legend-item" zIndex="1" transform="translate(5,112)"><path fill="none" d="M 0 11 L 16 11" stroke-width="2" stroke="#8d4653"/><path fill="#8d4653" d="M 8 7 L 12 15 4 15 Z" stroke="#FFFFFF" stroke-width="1"/><text x="21" y="15" style="color:#333333;font-size:12px;font-weight:bold;cursor:pointer;fill:#333333;" text-anchor="start" zIndex="2">Demokratie/NN</text></g><g class="highcharts-legend-item" zIndex="1" transform="translate(5,126)"><path fill="none" d="M 0 11 L 16 11" stroke-width="2" stroke="#91e8e1"/><path fill="#91e8e1" d="M 4 7 L 12 7 8 15 Z" stroke="#FFFFFF" stroke-width="1"/><text x="21" y="15" style="color:#333333;font-size:12px;font-weight:bold;cursor:pointer;fill:#333333;" text-anchor="start" zIndex="2">sagen/VVFIN</text></g><g class="highcharts-legend-item" zIndex="1" transform="translate(5,140)"><path fill="none" d="M 0 11 L 16 11" stroke-width="2" stroke="#7cb5ec"/><path fill="#7cb5ec" d="M 8 7 C 13.328 7 13.328 15 8 15 C 2.6719999999999997 15 2.6719999999999997 7 8 7 Z" stroke="#FFFFFF" stroke-width="1"/><text x="21" y="15" style="color:#333333;font-size:12px;font-weight:bold;cursor:pointer;fill:#333333;" text-anchor="start" zIndex="2">rein/ADJA</text></g><g class="highcharts-legend-item" zIndex="1" transform="translate(5,154)"><path fill="none" d="M 0 11 L 16 11" stroke-width="2" stroke="#434348"/><path fill="#434348" d="M 8 7 L 12 11 8 15 4 11 Z" stroke="#FFFFFF" stroke-width="1"/><text x="21" y="15" style="color:#333333;font-size:12px;font-weight:bold;cursor:pointer;fill:#333333;" text-anchor="start" zIndex="2">Europa/NE</text></g><g class="highcharts-legend-item" zIndex="1" transform="translate(5,168)"><path fill="none" d="M 0 11 L 16 11" stroke-width="2" stroke="#90ed7d"/><path fill="#90ed7d" d="M 4 7 L 12 7 12 15 4 15 Z" stroke="#FFFFFF" stroke-width="1"/><text x="21" y="15" style="color:#333333;font-size:12px;font-weight:bold;cursor:pointer;fill:#333333;" text-anchor="start" zIndex="2">link/ADJA</text></g><g class="highcharts-legend-item" zIndex="1" transform="translate(5,182)"><path fill="none" d="M 0 11 L 16 11" stroke-width="2" stroke="#f7a35c"/><path fill="#f7a35c" d="M 8 7 L 12 15 4 15 Z" stroke="#FFFFFF" stroke-width="1"/><text x="21" y="15" style="color:#333333;font-size:12px;font-weight:bold;cursor:pointer;fill:#333333;" text-anchor="start" zIndex="2">Land/NN</text></g><g class="highcharts-legend-item" zIndex="1" transform="translate(5,196)"><path fill="none" d="M 0 11 L 16 11" stroke-width="2" stroke="#8085e9"/><path fill="#8085e9" d="M 4 7 L 12 7 8 15 Z" stroke="#FFFFFF" stroke-width="1"/><text x="21" y="15" style="color:#333333;font-size:12px;font-weight:bold;cursor:pointer;fill:#333333;" text-anchor="start" zIndex="2">politisch/ADJA</text></g><g class="highcharts-legend-item" zIndex="1" transform="translate(5,210)"><path fill="none" d="M 0 11 L 16 11" stroke-width="2" stroke="#f15c80"/><path fill="#f15c80" d="M 8 7 C 13.328 7 13.328 15 8 15 C 2.6719999999999997 15 2.6719999999999997 7 8 7 Z" stroke="#FFFFFF" stroke-width="1"/><text x="21" y="15" style="color:#333333;font-size:12px;font-weight:bold;cursor:pointer;fill:#333333;" text-anchor="start" zIndex="2">neu/ADJA</text></g><g class="highcharts-legend-item" zIndex="1" transform="translate(5,224)"><path fill="none" d="M 0 11 L 16 11" stroke-width="2" stroke="#e4d354"/><path fill="#e4d354" d="M 8 7 L 12 11 8 15 4 11 Z" stroke="#FFFFFF" stroke-width="1"/><text x="21" y="15" style="color:#333333;font-size:12px;font-weight:bold;cursor:pointer;fill:#333333;" text-anchor="start" zIndex="2">werfen/VVFIN</text></g><g class="highcharts-legend-item" zIndex="1" transform="translate(5,238)"><path fill="none" d="M 0 11 L 16 11" stroke-width="2" stroke="#8085e8"/><path fill="#8085e8" d="M 4 7 L 12 7 12 15 4 15 Z" stroke="#FFFFFF" stroke-width="1"/><text x="21" y="15" style="color:#333333;font-size:12px;font-weight:bold;cursor:pointer;fill:#333333;" text-anchor="start" zIndex="2">recht/ADJA</text></g><g class="highcharts-legend-item" zIndex="1" transform="translate(5,252)"><path fill="none" d="M 0 11 L 16 11" stroke-width="2" stroke="#8d4653"/><path fill="#8d4653" d="M 8 7 L 12 15 4 15 Z" stroke="#FFFFFF" stroke-width="1"/><text x="21" y="15" style="color:#333333;font-size:12px;font-weight:bold;cursor:pointer;fill:#333333;" text-anchor="start" zIndex="2">eigen/ADJA</text></g><g class="highcharts-legend-item" zIndex="1" transform="translate(5,266)"><path fill="none" d="M 0 11 L 16 11" stroke-width="2" stroke="#91e8e1"/><path fill="#91e8e1" d="M 4 7 L 12 7 8 15 Z" stroke="#FFFFFF" stroke-width="1"/><text x="21" y="15" style="color:#333333;font-size:12px;font-weight:bold;cursor:pointer;fill:#333333;" text-anchor="start" zIndex="2">Antwort/NN</text></g></g></g></g><g class="highcharts-axis-labels highcharts-xaxis-labels" zIndex="7"><text x="76.62745098038447" text-anchor="middle" style="color:#606060;cursor:default;font-size:11px;fill:#606060;" y="365" opacity="1">2010</text><text x="199.8767507002746" text-anchor="middle" style="color:#606060;cursor:default;font-size:11px;fill:#606060;" y="365" opacity="1">2011</text><text x="323.12605042016474" text-anchor="middle" style="color:#606060;cursor:default;font-size:11px;fill:#606060;" y="365" opacity="1">2012</text><text x="446.3753501400549" text-anchor="middle" style="color:#606060;cursor:default;font-size:11px;fill:#606060;" y="365" opacity="1">2013</text><text x="569.6246498599451" text-anchor="middle" style="color:#606060;cursor:default;font-size:11px;fill:#606060;" y="365" opacity="1">2014</text><text x="692.8739495798352" text-anchor="middle" style="color:#606060;cursor:default;font-size:11px;fill:#606060;" y="365" opacity="1">2015</text><text x="816.1232492997253" text-anchor="middle" style="color:#606060;cursor:default;font-size:11px;fill:#606060;" y="365" opacity="1">2016</text><text x="939.3725490196155" text-anchor="middle" style="color:#606060;cursor:default;font-size:11px;fill:#606060;" y="365" opacity="1">2017</text></g><g class="highcharts-axis-labels highcharts-yaxis-labels" zIndex="7"><text x="53" text-anchor="end" style="width:399px;color:#606060;cursor:default;font-size:11px;fill:#606060;" y="350.5" opacity="1">-0.2</text><text x="53" text-anchor="end" style="width:399px;color:#606060;cursor:default;font-size:11px;fill:#606060;" y="293.5" opacity="1">0</text><text x="53" text-anchor="end" style="width:399px;color:#606060;cursor:default;font-size:11px;fill:#606060;" y="236.5" opacity="1">0.2</text><text x="53" text-anchor="end" style="width:399px;color:#606060;cursor:default;font-size:11px;fill:#606060;" y="179.49999999999997" opacity="1">0.4</text><text x="53" text-anchor="end" style="width:399px;color:#606060;cursor:default;font-size:11px;fill:#606060;" y="122.5" opacity="1">0.6</text><text x="53" text-anchor="end" style="width:399px;color:#606060;cursor:default;font-size:11px;fill:#606060;" y="65.5" opacity="1">0.8</text></g><g class="highcharts-tooltip" zIndex="8" style="cursor:default;padding:0;white-space:nowrap;" transform="translate(0,-9999)"><path fill="none" d="M 3 0 L 13 0 C 16 0 16 0 16 3 L 16 13 C 16 16 16 16 13 16 L 3 16 C 0 16 0 16 0 13 L 0 3 C 0 0 0 0 3 0" stroke-width="5" isShadow="true" stroke="black" stroke-opacity="0.049999999999999996" transform="translate(1, 1)"/><path fill="none" d="M 3 0 L 13 0 C 16 0 16 0 16 3 L 16 13 C 16 16 16 16 13 16 L 3 16 C 0 16 0 16 0 13 L 0 3 C 0 0 0 0 3 0" stroke-width="3" isShadow="true" stroke="black" stroke-opacity="0.09999999999999999" transform="translate(1, 1)"/><path fill="none" d="M 3 0 L 13 0 C 16 0 16 0 16 3 L 16 13 C 16 16 16 16 13 16 L 3 16 C 0 16 0 16 0 13 L 0 3 C 0 0 0 0 3 0" stroke-width="1" isShadow="true" stroke="black" stroke-opacity="0.15" transform="translate(1, 1)"/><path fill="rgba(249, 249, 249, .85)" d="M 3 0 L 13 0 C 16 0 16 0 16 3 L 16 13 C 16 16 16 16 13 16 L 3 16 C 0 16 0 16 0 13 L 0 3 C 0 0 0 0 3 0" stroke-width="1"/><text x="8" zIndex="1" style="font-size:12px;color:#333333;fill:#333333;" y="21"></text></g></svg>